<?xml version="1.0" standalone="no"?>
<!DOCTYPE svg PUBLIC "-//W3C//DTD SVG 1.1//EN" "http://www.w3.org/Graphics/SVG/1.1/DTD/svg11.dtd" >
<svg xmlns="http://www.w3.org/2000/svg">
<metadata>
Created by FontPrep 20130207 at Mon Jun  2 20:40:58 2014
 By Chris W. Burke
Copyright Copr. 1999, Luc[as] de Groot &#60;www.FontFabrik.com&#62;. All rights reserved. Published by FontShop International &#60;www.fontfont.de&#62;
</metadata>
<defs>
<font id="1cfa04de933ab6795e74288ece422cbe" horiz-adv-x='1024' >
  <font-face 
    font-family="TheSans-B3LightItalic"
    font-weight="200"
    font-style="italic"
    font-stretch="normal"
    units-per-em="2048"
    panose-1="2 0 3 3 0 0 0 0 0 0"
    ascent="1638"
    descent="-410"
    x-height="1018"
    cap-height="1382"
    bbox="-385 -530.009 2075 1745"
    underline-thickness="100"
    underline-position="-465"
    slope="-11"
    unicode-range="U+0020-FFFD"
  />
<missing-glyph 
 />
    <glyph glyph-name=".notdef" unicode="&#xfffd;" 
 />
    <glyph glyph-name=".null" horiz-adv-x="0" 
 />
    <glyph glyph-name="nonmarkingreturn" horiz-adv-x="681" 
 />
    <glyph glyph-name="space" unicode=" " horiz-adv-x="446" 
 />
    <glyph glyph-name="exclam" unicode="!" horiz-adv-x="638" 
d="M358 82q0 -41 -28 -70q-28 -28 -68 -28t-68 28t-28 68q0 41 29 70q29 28 69 28t67 -27q27 -28 27 -69zM594 1432l-238 -1117h-102l188 1117h152z" />
    <glyph glyph-name="quotedbl" unicode="&#x22;" horiz-adv-x="677" 
d="M434 1427l-108 -436h-90l57 436h141zM739 1427l-108 -436h-90l55 436h143z" />
    <glyph glyph-name="numbersign" unicode="#" 
d="M819 870h-330l-116 -393h329zM1141 956l-17 -86h-202l-115 -393h192l-16 -88h-203l-116 -389h-105l117 389h-330l-117 -389h-102l117 389h-197l16 88h207l115 393h-197l19 86h205l110 375h103l-109 -375h330l108 375h103l-109 -375h193z" />
    <glyph glyph-name="dollar" unicode="$" 
d="M720 1192q-138 0 -222 -65t-84 -147t50 -135q50 -52 121 -88t141 -75q70 -40 121 -106q50 -66 50 -158q0 -133 -112 -244t-298 -135l-41 -213h-104l41 209q-115 0 -246 33l29 125q112 -47 262 -47t241 73q91 74 91 160t-49 142t-120 92t-141 74t-118 103q-49 65 -49 154
q0 135 108 235q109 99 287 117l35 199h104l-37 -195q107 -1 209 -24l-26 -119q-104 35 -243 35z" />
    <glyph glyph-name="percent" unicode="%" horiz-adv-x="1490" 
d="M1253 385q0 135 -127 135q-94 0 -160 -85t-67 -221q0 -136 127 -136q94 0 161 86q66 86 66 221zM655 1118q0 135 -125 135q-94 0 -160 -85t-67 -221q0 -136 125 -136q94 0 161 86q66 86 66 221zM1370 401q0 -186 -108 -302q-108 -115 -235 -115q-243 1 -245 213
q0 186 108 302q108 115 236 115q244 0 244 -213zM1436 1303l-1250 -1342l-73 64l1249 1341zM772 1137q0 -188 -108 -304t-235 -116q-241 0 -243 215q0 186 108 301t236 115q242 0 242 -211z" />
    <glyph glyph-name="ampersand" unicode="&#x26;" horiz-adv-x="1593" 
d="M229 346q0 -114 67 -184t200 -70q256 0 469 176q-258 262 -422 490q-152 -106 -233 -202t-81 -210zM864 1260q0 141 -151 141q-103 -1 -165 -63t-62 -155t104 -265q94 66 141 104t90 102q43 66 43 136zM94 303q0 241 245 432q58 47 146 109q-129 204 -129 332t104 228
t252 101q150 0 217 -62q67 -61 67 -147t-26 -147q-42 -101 -188 -216q-47 -38 -135 -102q152 -217 412 -477q91 92 157 234t89 313h131q-57 -379 -297 -625q137 -131 247 -217l-92 -92q-117 94 -250 223q-252 -207 -577 -206q-184 0 -279 92q-94 92 -94 227z" />
    <glyph glyph-name="quotesingle" unicode="'" horiz-adv-x="372" 
d="M434 1427l-108 -436h-90l57 436h141z" />
    <glyph glyph-name="parenleft" unicode="(" horiz-adv-x="604" 
d="M748 1542q-205 -252 -341 -594q-137 -342 -137 -698t113 -621l-100 -49q-137 330 -137 679t138 694t380 640z" />
    <glyph glyph-name="parenright" unicode=")" horiz-adv-x="604" 
d="M502 920q0 -354 -137 -699q-137 -344 -379 -641l-84 51q203 252 340 595q137 344 137 698t-115 620l101 49q137 -319 137 -673z" />
    <glyph glyph-name="asterisk" unicode="*" horiz-adv-x="735" 
d="M788 1298l-227 -96l189 -108l-62 -86l-172 137l-31 -240l-102 17l61 219l-198 -127l-43 94l225 94l-188 111l59 82l170 -135l33 239l102 -14l-61 -221l202 125z" />
    <glyph glyph-name="plus" unicode="+" 
d="M1065 664l-21 -109h-413l-84 -432h-121l82 432h-410l23 109h409l82 430h121l-82 -430h414z" />
    <glyph glyph-name="comma" unicode="," horiz-adv-x="417" 
d="M141 180q74 0 90 -74q27 -115 -110 -266q-59 -66 -144 -127l-51 60q201 168 142 282q-24 43 0 84t73 41z" />
    <glyph glyph-name="hyphen" unicode="-" horiz-adv-x="669" 
d="M596 655l-21 -106h-466l20 106h467z" />
    <glyph glyph-name="period" unicode="." horiz-adv-x="417" 
d="M240 85q0 -42 -29 -72q-29 -29 -69 -29t-68 28t-27 70q0 41 29 71q30 29 70 29t67 -28t27 -69z" />
    <glyph glyph-name="slash" unicode="/" horiz-adv-x="843" 
d="M1028 1550l-1063 -1880h-123l1061 1880h125z" />
    <glyph glyph-name="zero" unicode="0" 
d="M252 367q0 -275 224 -275q120 0 213 95t144 238q101 287 101 540q0 276 -223 276q-119 0 -213 -96q-153 -157 -220 -516q-26 -135 -26 -262zM1073 963q0 -255 -87 -493q-48 -134 -116 -240t-176 -177q-108 -70 -239 -69q-340 0 -340 385q0 307 136 616q69 158 194 260
q126 103 293 103t251 -102t84 -283z" />
    <glyph glyph-name="one" unicode="1" 
d="M928 117l-23 -117h-837l22 117h373l207 1087l-373 -137l-4 119l424 145h112l-233 -1214h332z" />
    <glyph glyph-name="two" unicode="2" 
d="M652 1348q186 0 278 -88t92 -226q0 -139 -87 -277t-341 -343l-365 -293v-2q156 4 455 4h223l-24 -123h-850l18 104l455 375q221 182 299 296q78 113 78 227q-1 114 -63 176t-164 61q-102 0 -193 -34q-92 -34 -156 -81l-35 109q194 115 380 115z" />
    <glyph glyph-name="three" unicode="3" 
d="M683 1348q165 0 254 -70t89 -197t-90 -225t-240 -137l-2 -4q117 -14 180 -85q64 -71 64 -166q1 -180 -142 -324q-71 -72 -194 -114t-266 -42t-250 30l29 123q106 -41 237 -41q219 0 331 102t112 234q0 100 -80 158q-81 58 -211 57q-130 0 -221 -8l20 109h37q295 0 421 95
t126 226q1 80 -61 126t-187 46t-295 -80l-6 117q180 70 345 70z" />
    <glyph glyph-name="four" unicode="4" 
d="M840 1194h-2l-654 -760q291 4 510 4zM991 1331l-168 -893h244l-25 -116h-243l-62 -322h-127l60 322h-643l12 100l778 909h174z" />
    <glyph glyph-name="five" unicode="5" 
d="M526 801q206 0 312 -85t106 -224q0 -209 -170 -359t-444 -149q-129 0 -240 24l23 125q111 -39 237 -39q207 0 331 106t124 271q0 221 -328 221q-147 0 -225 -16l125 655h686l-23 -125h-569l-80 -411q66 6 135 6z" />
    <glyph glyph-name="six" unicode="6" 
d="M252 361q0 -271 270 -271q140 0 248 115t107 289q-1 106 -63 166t-187 61q-163 0 -269 -114t-106 -246zM913 1235q-426 0 -602 -494q-6 -16 -41 -116h2q62 96 168 150t222 54q170 0 260 -85t90 -224q0 -225 -155 -381t-384 -155q-174 0 -265 101t-91 307t106 459
q89 208 254 343q84 68 229 119t343 30l-23 -114q-49 6 -113 6z" />
    <glyph glyph-name="seven" unicode="7" 
d="M457 1204h-203l25 127h886l-22 -112q-446 -608 -783 -1219h-155q397 680 788 1208q-82 -4 -536 -4z" />
    <glyph glyph-name="eight" unicode="8" 
d="M825 365q0 90 -61 145t-182 117q-207 -99 -282 -185t-75 -170t69 -133q70 -49 198 -49t231 72q102 72 102 203zM926 1063q0 178 -242 178q-121 0 -206 -80t-85 -168t54 -138t161 -110q178 88 248 159t70 159zM704 1348q182 0 271 -68q88 -68 88 -196q0 -126 -82 -214
t-270 -182q119 -61 185 -131t67 -176q-1 -178 -149 -288q-148 -109 -338 -109t-290 71q-100 72 -100 199t96 229t293 197q-102 53 -161 118q-58 65 -58 160q0 156 133 273t315 117z" />
    <glyph glyph-name="nine" unicode="9" 
d="M928 981q0 117 -65 189t-185 71q-158 0 -262 -123t-105 -280q1 -111 61 -170t175 -60q157 0 269 108t112 265zM262 -16q-119 0 -188 12l22 121q84 -18 162 -19q424 0 590 463q27 78 37 98h-2q-145 -166 -369 -165q-162 0 -250 84t-88 235q0 211 146 373t380 162
q170 0 266 -94t97 -295q0 -202 -100 -460q-37 -93 -103 -189t-148 -166q-82 -72 -208 -116q-125 -44 -244 -44z" />
    <glyph glyph-name="colon" unicode=":" horiz-adv-x="569" 
d="M338 84q0 -41 -29 -71q-29 -29 -69 -29t-67 28q-28 28 -28 70q0 41 28 71q28 29 69 29q40 0 68 -28t28 -70zM457 696q0 -42 -29 -70t-70 -28q-40 0 -68 29t-28 69t29 70q29 29 69 29t69 -29q28 -29 28 -70z" />
    <glyph glyph-name="semicolon" unicode=";" horiz-adv-x="569" 
d="M244 180q74 0 90 -74q27 -115 -111 -266q-59 -66 -143 -127l-51 60q201 168 141 282q-23 43 1 84t73 41zM457 696q0 -42 -29 -70t-70 -28q-40 0 -68 29t-28 69t29 70q29 29 69 29t69 -29q28 -29 28 -70z" />
    <glyph glyph-name="less" unicode="&#x3c;" 
d="M991 1098l-645 -475l475 -482l-90 -82l-551 574l738 553z" />
    <glyph glyph-name="equal" unicode="=" 
d="M1008 504l-21 -111h-891l21 111h891zM1067 823l-18 -108h-891l18 108h891z" />
    <glyph glyph-name="greater" unicode="&#x3e;" 
d="M989 612l-737 -553l-74 86l645 478l-475 481l90 82z" />
    <glyph glyph-name="question" unicode="?" horiz-adv-x="886" 
d="M399 82q-1 -41 -29 -70q-28 -28 -68 -28t-68 28t-27 68q0 41 27 70q28 28 69 28t69 -27q27 -28 27 -69zM836 1081q0 -79 -36 -145t-88 -110t-110 -97t-107 -104q-48 -51 -74 -131t-11 -179h-127q-15 123 21 221t99 161t129 117q162 134 162 257q0 94 -95 164t-249 90
l39 119q207 -26 327 -128t120 -235z" />
    <glyph glyph-name="at" unicode="@" horiz-adv-x="1976" 
d="M1112 981q-139 0 -249 -141t-109 -338q0 -123 84 -123q96 0 200 123t166 346l33 119q-49 14 -125 14zM1827 888q0 -268 -140 -446t-346 -178q-129 0 -178 73t-20 169h-6q-29 -76 -129 -159t-201 -83q-176 0 -176 204t112 396q55 94 155 154t232 61q131 0 248 -22
l-127 -457q-62 -225 113 -225q150 0 248 145q98 146 98 364t-137 364t-420 147q-340 1 -588 -267t-248 -641q0 -259 154 -409t436 -150q178 0 338 49l6 -110q-172 -51 -366 -51q-326 0 -507 176t-181 468t133 529q133 236 357 372t480 136q326 0 493 -171t167 -438z" />
    <glyph glyph-name="A" unicode="A" horiz-adv-x="1224" 
d="M879 459l-103 590q-18 109 -26 188h-2q-55 -117 -93 -184l-327 -594h551zM1092 0h-142l-55 352h-623l-194 -352h-144l775 1382h137z" />
    <glyph glyph-name="B" unicode="B" horiz-adv-x="1128" 
d="M862 453q0 213 -344 213q-131 0 -166 -2l-104 -551q78 -12 192 -13q198 0 310 102t112 251zM944 1104q0 86 -58 132t-210 46q-80 0 -207 -4l-98 -510q45 -2 135 -2q198 0 318 89t120 249zM1079 1130q0 -154 -89 -258t-218 -145v-2q104 -18 166 -91t61 -167
q1 -201 -155 -337t-436 -136q-2 0 -310 6l262 1382l353 4q190 0 278 -68t88 -188z" />
    <glyph glyph-name="C" unicode="C" horiz-adv-x="1171" 
d="M872 1286q-154 0 -276 -70q-220 -126 -301 -446q-37 -141 -37 -308t87 -264q87 -98 279 -98t357 74l14 -111q-190 -78 -391 -77q-487 0 -487 469q0 384 198 656q96 132 247 209t327 77t328 -43l-37 -119q-154 51 -308 51z" />
    <glyph glyph-name="D" unicode="D" horiz-adv-x="1376" 
d="M1194 870q0 412 -481 412q-66 0 -244 -6l-221 -1159q104 -14 192 -15q192 0 342 67t237 177q175 222 175 524zM1331 885q0 -356 -218 -614q-108 -129 -286 -203t-405 -74q-72 0 -175 4t-149 2l262 1382l373 7q598 0 598 -504z" />
    <glyph glyph-name="E" unicode="E" horiz-adv-x="1017" 
d="M1028 1382l-20 -106h-539l-98 -510h516l-21 -104h-514l-104 -553h538l-20 -109h-668l262 1382h668z" />
    <glyph glyph-name="F" unicode="F" horiz-adv-x="944" 
d="M1026 1382l-20 -106h-537l-98 -512h510l-21 -107h-508l-125 -657h-129l262 1382h666z" />
    <glyph glyph-name="G" unicode="G" horiz-adv-x="1378" 
d="M950 1290q-298 0 -498 -223t-200 -547q0 -176 108 -301t330 -125q150 0 311 49l105 547h129l-123 -635q-213 -72 -444 -71q-270 0 -413 144q-142 144 -142 384q0 389 248 638q249 249 610 249q198 -1 362 -58l-39 -127q-164 76 -344 76z" />
    <glyph glyph-name="H" unicode="H" horiz-adv-x="1417" 
d="M1389 1382l-263 -1382h-129l127 664h-774l-127 -664h-129l262 1382h129l-114 -610h774l115 610h129z" />
    <glyph glyph-name="I" unicode="I" horiz-adv-x="514" 
d="M489 1382l-262 -1382h-129l262 1382h129z" />
    <glyph glyph-name="J" unicode="J" horiz-adv-x="649" 
d="M47 -12q-68 0 -141 16l22 121q68 -27 148 -27q175 0 225 246l197 1038h129l-199 -1042q-33 -178 -123 -265t-258 -87z" />
    <glyph glyph-name="K" unicode="K" horiz-adv-x="1099" 
d="M1200 1382l-700 -682l448 -700h-166l-426 700l-131 -700h-129l262 1382h129l-129 -669l670 669h172z" />
    <glyph glyph-name="L" unicode="L" horiz-adv-x="851" 
d="M766 109l-23 -109h-645l262 1382h129l-241 -1273h518z" />
    <glyph glyph-name="M" unicode="M" horiz-adv-x="1787" 
d="M1636 1382l-65 -1382h-131l43 885q8 215 24 360h-4q-29 -74 -104 -217l-537 -1028h-151l-138 965q-27 186 -28 280h-2q-61 -217 -107 -362l-272 -883h-139l452 1382h166l137 -983q18 -135 27 -264h2q57 129 121 246l522 1001h184z" />
    <glyph glyph-name="N" unicode="N" horiz-adv-x="1411" 
d="M1389 1382l-265 -1382h-151l-416 956q-78 178 -111 289q-35 -236 -100 -602l-121 -643h-129l262 1382h154l414 -950q66 -152 112 -289q53 326 97 555l122 684h132z" />
    <glyph glyph-name="O" unicode="O" horiz-adv-x="1417" 
d="M1237 887q0 189 -93 295t-276 106q-262 0 -439 -230t-177 -558q0 -186 93 -295t263 -109q258 0 444 228t185 563zM1378 901q0 -391 -228 -654t-556 -263q-240 0 -362 129t-121 370q0 381 225 649t555 267q233 0 360 -130t127 -368z" />
    <glyph glyph-name="P" unicode="P" horiz-adv-x="1038" 
d="M926 1049q0 233 -291 233q-98 0 -168 -6l-115 -600q55 -12 135 -12q176 0 308 110q131 111 131 275zM1061 1071q0 -225 -181 -371t-421 -145q-72 0 -127 6l-107 -561h-129l262 1382q141 6 323 6t281 -84q99 -86 99 -233z" />
    <glyph glyph-name="Q" unicode="Q" horiz-adv-x="1419" 
d="M1237 887q0 189 -93 295t-276 106q-262 0 -439 -230t-177 -558q0 -186 93 -295t263 -109q258 0 444 228t185 563zM1274 -233l-23 -113q-143 -18 -267 8t-236 54t-226 12l19 112q131 16 250 -10t237 -53q118 -26 246 -10zM1378 901q0 -391 -228 -654t-556 -263
q-240 0 -362 129t-121 370q0 381 224 649t554 267q233 0 361 -130t128 -368z" />
    <glyph glyph-name="R" unicode="R" horiz-adv-x="1089" 
d="M909 1083q-1 201 -251 201q-122 0 -189 -6l-98 -520q45 -4 125 -4q180 0 296 86t117 243zM1044 1096q0 -195 -156 -315t-366 -126q12 -18 86 -141l307 -514h-159l-377 653h-29l-123 -653h-129l262 1382q127 6 293 7q391 0 391 -293z" />
    <glyph glyph-name="S" unicode="S" horiz-adv-x="919" 
d="M342 1043q0 -91 45 -152t110 -105t131 -92q154 -111 154 -286q0 -176 -148 -300t-378 -124q-129 0 -213 28l27 129q98 -43 200 -43q176 0 276 83q99 83 99 213t-153 237q-63 43 -127 89q-63 46 -109 118q-45 72 -45 163q0 166 130 282t355 116q105 -1 193 -19l-23 -118
q-90 31 -192 30q-160 0 -246 -79t-86 -170z" />
    <glyph glyph-name="T" unicode="T" horiz-adv-x="1044" 
d="M1171 1382l-20 -108h-418l-244 -1274h-129l244 1274h-420l21 108h966z" />
    <glyph glyph-name="U" unicode="U" horiz-adv-x="1402" 
d="M594 -16q-289 0 -374 138t-40 341l176 919h129l-176 -917q-37 -191 32 -283t271 -92t316 98q115 98 159 336l164 858h127l-166 -876q-98 -522 -618 -522z" />
    <glyph glyph-name="V" unicode="V" horiz-adv-x="1224" 
d="M1356 1382l-776 -1382h-144l-235 1382h139l152 -946q25 -141 40 -299h3q37 86 157 312l520 933h144z" />
    <glyph glyph-name="W" unicode="W" horiz-adv-x="1918" 
d="M2003 1382l-629 -1382h-166l-98 1049q-8 109 -12 206h-2q-39 -111 -88 -208l-490 -1047h-166l-102 1382h133l70 -1001q8 -139 6 -254h2q55 139 104 248l473 1007h164l103 -1026q12 -121 10 -229h2q39 104 80 199l469 1056h137z" />
    <glyph glyph-name="X" unicode="X" horiz-adv-x="1157" 
d="M1237 1382l-553 -663l330 -719h-152l-268 614l-496 -614h-155l598 721l-303 661h145l248 -557l452 557h154z" />
    <glyph glyph-name="Y" unicode="Y" horiz-adv-x="1040" 
d="M1180 1382l-600 -878l-97 -504h-129l97 504l-256 878h133l145 -514q33 -121 62 -250h2q39 72 172 273l321 491h150z" />
    <glyph glyph-name="Z" unicode="Z" horiz-adv-x="1058" 
d="M539 119h356l-25 -119h-874l18 92l779 985q49 63 165 193q-156 -4 -321 -4h-377l23 116h843l-16 -94l-823 -1034q-27 -37 -117 -139q47 4 369 4z" />
    <glyph glyph-name="bracketleft" unicode="[" horiz-adv-x="636" 
d="M762 1571l-21 -96h-243l-340 -1774h248l-21 -100h-362l374 1970h365z" />
    <glyph glyph-name="backslash" unicode="\" horiz-adv-x="833" 
d="M692 -330h-114l-347 1880h111z" />
    <glyph glyph-name="bracketright" unicode="]" horiz-adv-x="636" 
d="M647 1571l-375 -1970h-364l18 100h246l338 1774h-246l19 96h364z" />
    <glyph glyph-name="asciicircum" unicode="^" 
d="M975 764l-103 -53l-198 569l-404 -569l-86 51l455 620h106z" />
    <glyph glyph-name="underscore" unicode="_" 
d="M969 -414l-21 -100h-1126l20 100h1127z" />
    <glyph glyph-name="grave" unicode="`" horiz-adv-x="735" 
d="M618 1245l-75 -61l-230 248l99 77z" />
    <glyph glyph-name="a" unicode="a" horiz-adv-x="1095" 
d="M666 930q-104 0 -199 -56q-167 -98 -229 -351q-27 -105 -27 -216q0 -217 121 -217q106 0 219 128t186 292q74 164 101 305l18 92q-86 23 -190 23zM299 -18q-219 0 -219 296t146 517q73 109 198 172q124 63 284 63t291 -29l-190 -1001h-131q23 123 133 477l-4 2
q-70 -165 -172 -306q-63 -87 -151 -139t-185 -52z" />
    <glyph glyph-name="b" unicode="b" horiz-adv-x="1095" 
d="M889 711q0 217 -123 217q-106 0 -218 -128t-184 -290t-102 -301l-18 -98q80 -23 186 -23t202 56q165 98 230 351q27 105 27 216zM396 -12q-152 0 -296 28l283 1479h125l-102 -539q-20 -104 -115 -409l4 -2q86 219 215 355t289 136q221 0 221 -298t-148 -515
q-74 -109 -198 -172q-126 -63 -278 -63z" />
    <glyph glyph-name="c" unicode="c" horiz-adv-x="856" 
d="M628 930q-122 0 -222 -95t-144 -225t-45 -268q0 -244 236 -244q127 0 247 56l13 -107q-147 -59 -293 -59q-340 0 -340 323q0 303 156 512t419 209q118 0 224 -37l-29 -110q-100 45 -222 45z" />
    <glyph glyph-name="d" unicode="d" horiz-adv-x="1095" 
d="M666 930q-104 0 -199 -56q-167 -98 -229 -351q-27 -105 -27 -216q0 -217 121 -217q106 0 219 128t186 292q74 164 101 305l18 92q-86 23 -190 23zM809 0h-129q20 119 131 477l-4 2q-70 -165 -172 -306q-63 -87 -151 -139t-185 -52q-219 0 -219 296t146 517
q73 109 198 172t285 63q82 0 165 -12l91 477h129l-215 -1126q-2 -5 -36 -185t-34 -184z" />
    <glyph glyph-name="e" unicode="e" horiz-adv-x="962" 
d="M776 801q0 63 -44 98t-116 35q-131 0 -224 -98t-136 -256q272 10 396 64t124 157zM909 815q0 -317 -676 -344q-12 -70 -12 -145q0 -138 52 -186q53 -48 193 -48t275 58l9 -105q-144 -61 -322 -61t-260 74t-82 254q0 181 61 345q61 165 189 271t280 106t223 -61
q70 -62 70 -158z" />
    <glyph glyph-name="f" unicode="f" horiz-adv-x="681" 
d="M-190 -420q128 0 200 80t109 272l188 983h-229l22 103h228l12 69q76 418 451 418q82 0 172 -18l-35 -109q-74 20 -180 20t-180 -74q-75 -75 -103 -234l-12 -72h309l-23 -103h-305l-186 -976q-47 -248 -160 -358t-299 -109q-92 0 -174 18l33 113q76 -23 162 -23z" />
    <glyph glyph-name="g" unicode="g" horiz-adv-x="1093" 
d="M666 930q-104 0 -199 -56q-167 -98 -229 -351q-27 -105 -27 -216q0 -217 121 -217q106 0 219 128t186 292q74 164 101 305l18 92q-86 23 -190 23zM299 -18q-219 0 -219 298t147 516q74 108 198 171q123 63 283 63t291 -29l-215 -1116q-78 -416 -563 -415q-143 0 -258 36
l27 134q128 -54 286 -54t258 79q99 79 139 287t134 515l-4 2q-66 -158 -168 -297q-63 -86 -151 -138t-185 -52z" />
    <glyph glyph-name="h" unicode="h" horiz-adv-x="1159" 
d="M784 1036q285 0 220 -350l-132 -686h-127l125 659q53 268 -108 269q-104 0 -216 -127t-186 -291t-100 -303l-39 -207h-125l285 1495h125l-96 -512q-31 -158 -119 -426l4 -2q84 205 213 343q130 138 276 138z" />
    <glyph glyph-name="i" unicode="i" horiz-adv-x="509" 
d="M416 1018l-195 -1018h-125l195 1018h125zM421 1440q37 0 63 -26t26 -63q0 -38 -28 -67t-66 -29t-63 26q-25 27 -25 65t27 66q28 28 66 28z" />
    <glyph glyph-name="j" unicode="j" horiz-adv-x="518" 
d="M-182 -528q-68 0 -129 14l26 117q57 -23 121 -23q113 0 162 65t84 242l217 1131h127l-225 -1176q-39 -194 -125 -282t-258 -88zM430 1440q38 0 62 -26t24 -63q0 -38 -28 -67t-64 -29t-63 26q-25 27 -25 65t28 66t66 28z" />
    <glyph glyph-name="k" unicode="k" horiz-adv-x="929" 
d="M918 979l-453 -418l330 -561h-156l-309 557l-109 -557h-125l285 1495h125l-174 -924l499 490z" />
    <glyph glyph-name="l" unicode="l" horiz-adv-x="509" 
d="M506 1495l-285 -1495h-125l285 1495h125z" />
    <glyph glyph-name="m" unicode="m" horiz-adv-x="1777" 
d="M786 1036q100 0 150 -52t51 -143q0 -91 -61 -286h4q80 203 208 342t270 139t194 -91t20 -259l-131 -686h-127l127 659q51 270 -102 271q-141 0 -293 -228t-201 -495l-39 -207h-127l127 659q51 270 -102 271q-139 0 -291 -228t-203 -495l-39 -207h-125l103 530q0 6 44 244
t46 244h131q-31 -154 -129 -461l4 -2q80 203 208 342t283 139z" />
    <glyph glyph-name="n" unicode="n" horiz-adv-x="1159" 
d="M784 1036q285 0 220 -350l-132 -686h-127l125 659q53 268 -108 269q-104 0 -216 -127t-186 -291t-100 -303l-39 -207h-125l103 530q0 6 44 244t46 244h131q-29 -147 -129 -461l4 -2q84 205 213 343q130 138 276 138z" />
    <glyph glyph-name="o" unicode="o" horiz-adv-x="1095" 
d="M887 659q0 268 -248 269q-182 0 -302 -167t-120 -394q0 -274 248 -275q168 0 295 158t127 409zM1022 672q0 -304 -174 -496t-408 -192q-176 0 -266 91t-90 267q0 297 162 495t411 197q181 0 273 -97t92 -265z" />
    <glyph glyph-name="p" unicode="p" horiz-adv-x="1095" 
d="M889 711q0 217 -123 217q-106 0 -218 -128t-184 -290t-102 -301l-16 -90q86 -29 188 -29t198 56q166 98 230 349q27 105 27 216zM389 -12q-74 0 -168 14l-96 -516h-127l201 1042q2 6 46 245t44 245h131q-23 -121 -129 -471l4 -2q86 219 215 355t289 136q221 0 221 -298
t-148 -515q-74 -109 -198 -172t-285 -63z" />
    <glyph glyph-name="q" unicode="q" horiz-adv-x="1095" 
d="M666 930q-104 0 -199 -56q-167 -98 -229 -351q-27 -105 -27 -216q0 -217 123 -217q104 0 217 128t186 292q74 164 101 305l18 92q-86 23 -190 23zM299 -18q-219 0 -219 296t146 517q73 109 198 172q124 63 284 63t291 -29l-288 -1515h-127l96 504q33 174 131 487l-4 2
q-70 -165 -172 -306q-63 -87 -151 -139t-185 -52z" />
    <glyph glyph-name="r" unicode="r" horiz-adv-x="712" 
d="M764 1034l-25 -125q-77 21 -157 -47q-138 -116 -251 -410q-46 -120 -65 -214l-45 -238h-125l103 530l90 488h127q-23 -133 -117 -424l4 -2q100 221 196 336q111 134 265 106z" />
    <glyph glyph-name="s" unicode="s" horiz-adv-x="786" 
d="M510 932q-100 0 -160 -49q-61 -49 -61 -119t53 -124q52 -56 116 -93t117 -102t54 -142q0 -133 -113 -226t-307 -93q-94 0 -170 12l24 125q90 -27 191 -27q100 0 172 49t72 142q0 59 -54 112t-116 90q-63 37 -117 104q-53 67 -53 150q0 127 100 210t279 83q94 0 176 -16
l-25 -111q-78 25 -178 25z" />
    <glyph glyph-name="t" unicode="t" horiz-adv-x="741" 
d="M426 100q82 0 152 17l-5 -113q-100 -18 -176 -18q-151 0 -195 74t-12 243l117 612h-229l20 103h230l65 344l135 33l-73 -377h303l-21 -103h-303l-110 -583q-25 -136 -3 -184q23 -48 105 -48z" />
    <glyph glyph-name="u" unicode="u" horiz-adv-x="1159" 
d="M378 -18q-285 0 -220 350l133 686h125l-125 -660q-53 -268 108 -268q104 0 216 127t186 291t100 303l39 207h125l-102 -531q0 -5 -44 -243t-47 -244h-129q23 133 127 461l-4 2q-84 -205 -213 -343t-275 -138z" />
    <glyph glyph-name="v" unicode="v" horiz-adv-x="935" 
d="M995 1012l-553 -1012h-133l-184 1018h139l115 -709q16 -100 20 -166h2l480 916z" />
    <glyph glyph-name="w" unicode="w" horiz-adv-x="1574" 
d="M360 141h2l437 877h149l90 -653q18 -150 23 -226h2l444 920l117 -45l-514 -1014h-149l-97 676q-16 123 -18 188h-2l-428 -864h-156l-115 1018h138l61 -656q16 -176 16 -221z" />
    <glyph glyph-name="x" unicode="x" horiz-adv-x="1034" 
d="M1061 987l-467 -479l280 -508h-155l-219 418l-445 -465l-90 80l479 483l-266 502h152l209 -412l434 455z" />
    <glyph glyph-name="y" unicode="y" horiz-adv-x="956" 
d="M-143 -528q-80 0 -138 14l25 123q55 -20 129 -21q125 0 253 144t128 368q0 395 -143 918h145q123 -492 123 -850q0 -63 -19 -156h2q252 430 512 1047l117 -39q-432 -1018 -786 -1370q-182 -178 -348 -178z" />
    <glyph glyph-name="z" unicode="z" horiz-adv-x="872" 
d="M467 119h225l-24 -119h-666l16 90l660 817q-143 -4 -281 -4h-213l23 115h645l-16 -88l-658 -815q131 4 289 4z" />
    <glyph glyph-name="braceleft" unicode="{" horiz-adv-x="655" 
d="M383 -399q-281 0 -207 360l82 416q23 117 -16 166t-162 57l22 107q131 8 186 54q54 46 77 167l53 284q70 358 344 359h35l-17 -96q-111 -1 -163 -57t-78 -197l-56 -283q-49 -262 -243 -287v-4q88 -14 122 -87t11 -191l-80 -416q-29 -141 3 -197t138 -55l-18 -100h-33z
" />
    <glyph glyph-name="bar" unicode="|" horiz-adv-x="567" 
d="M530 1534l-389 -2048h-100l389 2048h100z" />
    <glyph glyph-name="braceright" unicode="}" horiz-adv-x="657" 
d="M-57 -397h-35l18 100q111 0 162 55t78 197l78 414q53 262 245 286v4q-89 14 -123 87t-10 192l56 285q29 141 -3 197t-139 57l19 96h26q150 0 198 -99t15 -260l-57 -286q-25 -117 15 -165t161 -56l-20 -107q-131 -8 -185 -54t-77 -169l-80 -414q-35 -186 -114 -273
t-228 -87z" />
    <glyph glyph-name="asciitilde" unicode="~" 
d="M848 872q-76 0 -130 37t-81 80t-70 80t-105 37t-102 -54q-41 -54 -49 -139h-96q6 129 80 209t188 80q76 0 130 -37t81 -80t70 -79q42 -36 104 -37q62 0 103 54t49 140h96q-6 -131 -80 -211t-188 -80z" />
    <glyph glyph-name="nbspace" unicode="&#xa0;" horiz-adv-x="446" 
 />
    <glyph glyph-name="exclamdown" unicode="&#xa1;" horiz-adv-x="638" 
d="M387 702l-188 -1116h-150l238 1116h100zM475 938q0 -41 -28 -70q-29 -28 -69 -28t-67 28t-26 68q0 41 27 70q28 28 69 28t68 -27q26 -28 26 -69z" />
    <glyph glyph-name="cent" unicode="&#xa2;" 
d="M766 1040q-196 0 -318 -132t-122 -341q0 -240 282 -239q145 0 289 67l18 -106q-145 -63 -280 -72l-41 -217h-107l41 217q-338 27 -338 326q0 264 146 419t369 181l36 188h107l-37 -184q121 -4 238 -53l-43 -109q-117 55 -240 55z" />
    <glyph glyph-name="sterling" unicode="&#xa3;" 
d="M816 1243q-89 0 -146 -33t-89 -80q-79 -116 -79 -421h342l-19 -101h-323q-2 -178 -58 -284t-198 -213q90 4 172 4h477l-23 -115h-813l19 92q188 142 240 238t55 278h-236l21 101h215q0 358 125 506q112 133 341 133q122 0 226 -35l-41 -111q-119 41 -208 41z" />
    <glyph glyph-name="currency" unicode="&#xa4;" 
d="M834 760q0 180 -187 180q-133 0 -210 -106t-77 -242q0 -182 183 -182q123 0 207 108t84 242zM236 573q0 227 159 367l-127 203l101 65l114 -213q90 45 197 45t170 -45l201 213l75 -73l-206 -209q35 -53 34 -144q0 -213 -143 -350l139 -223l-100 -68l-127 228
q-101 -59 -203 -59t-158 32l-188 -201l-82 74l191 188q-47 63 -47 170z" />
    <glyph glyph-name="yen" unicode="&#xa5;" 
d="M1198 1331l-532 -760h321l-18 -94h-353l-28 -160h350l-16 -96h-353l-43 -221h-129l41 221h-350l18 96h351l30 160h-352l19 94h323l-229 760h139l133 -463q18 -66 62 -247h2q70 125 166 266l303 444h145z" />
    <glyph glyph-name="brokenbar" unicode="&#xa6;" horiz-adv-x="567" 
d="M287 260l-146 -774h-100l145 774h101zM530 1534l-143 -754h-100l143 754h100z" />
    <glyph glyph-name="section" unicode="&#xa7;" horiz-adv-x="1030" 
d="M707 500q0 85 -75 205q-26 39 -79 109t-76 104q-150 -90 -149 -244q0 -50 24 -108t55 -104q30 -46 148 -202q152 95 152 240zM737 1399q-121 0 -176 -73t-55 -143q0 -119 163 -301q60 -69 111 -169t51 -195q0 -199 -217 -344q43 -76 43 -156q0 -141 -104 -246t-270 -106
q-90 0 -158 23l25 110q86 -27 145 -26q113 1 172 73t59 140q0 107 -114 252q-47 59 -95 122q-114 153 -114 297q0 195 217 347q-47 92 -47 152q0 120 82 225q41 54 117 89t166 35t151 -18l-27 -111q-68 23 -125 23z" />
    <glyph glyph-name="dieresis" unicode="&#xa8;" horiz-adv-x="1095" 
d="M412 1436q38 0 62 -24t24 -61q0 -38 -27 -65q-27 -26 -63 -26t-62 24q-24 24 -24 62t26 64q27 26 64 26zM791 1436q37 0 60 -24t23 -61q0 -38 -26 -65q-26 -26 -64 -26t-62 26t-24 62t28 62t65 26z" />
    <glyph glyph-name="copyright" unicode="&#xa9;" horiz-adv-x="1509" 
d="M855 961q-93 1 -160 -63q-115 -109 -113 -306q0 -170 163 -170q92 0 179 31l2 -97q-94 -31 -199 -30q-264 0 -264 243q0 205 112 344q113 139 299 140q96 0 166 -25l-26 -98q-66 31 -159 31zM1354 700q0 240 -160 401t-396 161t-409 -172q-174 -172 -174 -412t160 -404
q159 -162 395 -162t410 174t174 414zM1462 706q0 -284 -209 -489t-493 -205t-470 186t-186 472q0 284 209 488t491 204t470 -186t188 -470z" />
    <glyph glyph-name="ordfeminine" unicode="&#xaa;" horiz-adv-x="763" 
d="M571 1300q-129 0 -205 -108t-77 -243q0 -134 80 -134q98 0 182 122t117 290l10 61q-47 12 -107 12zM713 588l-19 -103h-557l21 103h555zM340 719q-164 1 -164 197t111 335t307 140q113 -1 209 -17q-84 -420 -121 -645h-113q12 66 66 221h-2q-109 -231 -293 -231z" />
    <glyph glyph-name="guillemotleft" unicode="&#xab;" horiz-adv-x="972" 
d="M530 891l-249 -287l157 -291l-102 -57l-191 352l299 346zM903 889l-266 -285l176 -289l-102 -57l-207 350l313 344z" />
    <glyph glyph-name="logicalnot" unicode="&#xac;" 
d="M1006 664l-84 -441h-111l63 332h-776l23 109h885z" />
    <glyph glyph-name="registered" unicode="&#xae;" 
d="M657 1112q53 0 83 28t30 71q0 44 -61 44h-58l-26 -143h32zM856 1223q0 -66 -44 -109t-107 -53q12 -18 32 -64l70 -151h-94l-88 209h-13l-39 -209h-79l90 475h135q137 0 137 -98zM1001 1088q0 142 -90 237q-90 96 -224 96t-236 -102q-103 -101 -103 -243t89 -239t224 -97
t237 102q102 104 103 246zM1098 1096q0 -182 -134 -314t-310 -133q-176 0 -290 117q-116 118 -116 300t134 314t310 131t291 -117t115 -298z" />
    <glyph glyph-name="macron" unicode="&#xaf;" horiz-adv-x="792" 
d="M805 1386l-19 -98h-479l19 98h479z" />
    <glyph glyph-name="degree" unicode="&#xb0;" horiz-adv-x="737" 
d="M666 1260q0 64 -31 109q-31 44 -99 44t-109 -44q-42 -44 -42 -114q0 -71 36 -109t98 -38t105 44q42 44 42 108zM774 1268q0 -110 -79 -180t-187 -70t-170 62t-62 172t79 181t188 71t170 -64q61 -62 61 -172z" />
    <glyph glyph-name="plusminus" unicode="&#xb1;" 
d="M958 109l-20 -109h-944l22 109h942zM1085 780l-18 -108h-412l-80 -422h-122l79 422h-411l20 108h412l80 418h123l-82 -418h411z" />
    <glyph glyph-name="twosuperior" unicode="&#xb2;" horiz-adv-x="628" 
d="M621 1192q0 -70 -38 -129t-126 -125l-138 -104h263l-21 -101h-420l15 78l200 160q82 65 114 109t32 86q0 87 -92 85q-68 0 -125 -41l-35 86q88 50 182 50t142 -42t47 -112z" />
    <glyph glyph-name="threesuperior" unicode="&#xb3;" horiz-adv-x="1323" 
d="M596 1217q0 -117 -121 -170q90 -15 90 -111t-82 -156t-217 -61q-66 0 -116 14l26 92q61 -16 103 -16q166 0 165 121q0 88 -200 65l14 82h47q90 0 133 34t43 85q0 63 -88 64q-47 0 -112 -25l-23 78q72 33 161 33t133 -36t44 -93z" />
    <glyph glyph-name="acute" unicode="&#xb4;" horiz-adv-x="772" 
d="M639 1419l-293 -235l-57 71l274 254z" />
    <glyph glyph-name="paragraph" unicode="&#xb6;" horiz-adv-x="1130" 
d="M225 862q0 200 140 360t376 160l-161 -850q-176 -2 -266 90t-89 240zM1161 1382l-16 -96h-150l-284 -1483h-273l19 97h151l281 1482h272z" />
    <glyph glyph-name="periodcentered" unicode="&#xb7;" horiz-adv-x="428" 
d="M237 713q41 0 71 -30t30 -73q0 -42 -33 -74t-75 -32t-72 30t-29 72q0 42 33 75q33 32 75 32z" />
    <glyph glyph-name="cedilla" unicode="&#xb8;" horiz-adv-x="802" 
d="M406 -84q109 -174 -93 -399h-123q102 113 125 185t-28 163z" />
    <glyph glyph-name="onesuperior" unicode="&#xb9;" horiz-adv-x="606" 
d="M545 1331l-113 -598h-113l93 492l-162 -72l-10 92l204 86h101z" />
    <glyph glyph-name="ordmasculine" unicode="&#xba;" horiz-adv-x="833" 
d="M702 1152q0 144 -137 142q-119 0 -178 -102t-59 -219q0 -150 131 -150q104 0 174 92q69 93 69 237zM692 588l-20 -103h-529l21 103h528zM831 1163q1 -211 -117 -327t-274 -117q-240 0 -239 229q0 182 103 316t271 135q256 0 256 -236z" />
    <glyph glyph-name="guillemotright" unicode="&#xbb;" horiz-adv-x="972" 
d="M539 602l-314 -344l-88 64l269 286l-177 287l103 59zM895 602l-297 -344l-88 64l252 286l-160 289l105 57z" />
    <glyph glyph-name="onequarter" unicode="&#xbc;" horiz-adv-x="1394" 
d="M1053 512l-240 -299h182zM1214 213l-18 -90h-111l-22 -123h-109l25 123h-297l12 82l316 393h168l-76 -385h112zM1343 1303l-1249 -1342l-74 64l1248 1341zM545 1331l-113 -598h-113l93 492l-162 -72l-10 92l204 86h101z" />
    <glyph glyph-name="onehalf" unicode="&#xbd;" horiz-adv-x="1404" 
d="M545 1331l-113 -598h-113l93 492l-162 -72l-10 92l204 86h101zM1343 1303l-1249 -1342l-74 64l1248 1341zM1040 612q90 0 138 -42t49 -111q0 -70 -38 -129t-128 -127l-135 -103h262l-21 -100h-422l15 78l203 160q83 66 113 110t30 85q0 87 -90 85q-68 0 -125 -41l-35 86
q94 49 184 49z" />
    <glyph glyph-name="threequarters" unicode="&#xbe;" horiz-adv-x="1390" 
d="M596 1217q0 -117 -121 -170q90 -15 90 -111t-81 -156t-216 -61q-68 0 -116 14l24 92q61 -16 103 -16q166 0 165 121q0 88 -198 65l12 82h49q90 0 132 34t42 85q0 63 -86 64q-51 0 -112 -25l-23 78q72 33 161 33t132 -36t43 -93zM1339 1303l-1249 -1342l-74 64l1248 1341z
M1212 213l-16 -90h-111l-24 -123h-107l23 123h-295l10 82l316 393h170l-76 -385h110zM1053 512l-240 -299h180z" />
    <glyph glyph-name="questiondown" unicode="&#xbf;" horiz-adv-x="886" 
d="M53 -63q0 79 36 145t88 110q53 44 111 96q58 54 106 105t74 131t11 178h129q14 -104 -10 -191t-72 -142q-101 -118 -211 -205q-51 -41 -86 -98t-34 -119q0 -94 96 -164t250 -90l-39 -119q-207 25 -328 127t-121 236zM684 938q0 -41 -29 -70q-29 -28 -69 -28t-67 28
q-28 28 -27 68q0 41 27 70q28 28 69 28q40 0 68 -28t28 -68z" />
    <glyph glyph-name="Agrave" unicode="&#xc0;" horiz-adv-x="1224" 
d="M879 459l-103 590q-18 109 -26 188h-2q-55 -117 -93 -184l-327 -594h551zM1092 0h-142l-55 352h-623l-194 -352h-144l775 1382h137zM881 1577l-35 -78l-361 119l54 111z" />
    <glyph glyph-name="Aacute" unicode="&#xc1;" horiz-adv-x="1224" 
d="M879 459l-103 590q-18 109 -26 188h-2q-55 -117 -93 -184l-327 -594h551zM1092 0h-142l-55 352h-623l-194 -352h-144l775 1382h137zM1061 1618l-365 -119l-28 78l356 152z" />
    <glyph glyph-name="Acircumflex" unicode="&#xc2;" horiz-adv-x="1224" 
d="M879 459l-103 590q-18 109 -26 188h-2q-55 -117 -93 -184l-327 -594h551zM1092 0h-142l-55 352h-623l-194 -352h-144l775 1382h137zM1092 1579l-50 -84l-243 133l-287 -133l-37 78l334 172z" />
    <glyph glyph-name="Atilde" unicode="&#xc3;" horiz-adv-x="1224" 
d="M879 459l-103 590q-18 109 -26 188h-2q-55 -117 -93 -184l-327 -594h551zM1092 0h-142l-55 352h-623l-194 -352h-144l775 1382h137zM924 1516q-72 0 -149 57t-118 57q-74 0 -139 -96l-65 53q80 137 211 137q74 0 150 -56t116 -56q76 0 139 94l68 -53q-84 -137 -213 -137z
" />
    <glyph glyph-name="Adieresis" unicode="&#xc4;" horiz-adv-x="1224" 
d="M879 459l-103 590q-18 109 -26 188h-2q-55 -117 -93 -184l-327 -594h551zM1092 0h-142l-55 352h-623l-194 -352h-144l775 1382h137zM672 1594q0 -36 -26 -62t-62 -27q-36 0 -59 25q-23 24 -23 60t25 62q26 26 62 26q35 0 59 -24t24 -60zM1098 1594q0 -36 -26 -62t-62 -27
q-36 0 -60 25q-24 24 -24 60t26 62q27 26 63 26q35 0 59 -24t24 -60z" />
    <glyph glyph-name="Aring" unicode="&#xc5;" horiz-adv-x="1224" 
d="M879 459l-103 585q-18 117 -26 193h-2q-45 -98 -97 -188l-323 -590h551zM786 1386q48 0 86 38q37 38 37 90q-1 50 -31 84t-78 34t-86 -38t-38 -90t31 -85t79 -33zM582 1484q0 106 68 169q69 63 155 63t142 -55q57 -55 57 -131t-41 -131t-105 -80l234 -1319h-142l-55 352
h-623l-194 -352h-144l744 1331q-96 47 -96 153z" />
    <glyph glyph-name="AE" unicode="&#xc6;" horiz-adv-x="1542" 
d="M874 1272h-4q-84 -129 -190 -275l-391 -536h434zM1552 1382l-20 -106h-528l-97 -510h508l-20 -104h-508l-107 -553h551l-20 -109h-678l67 354h-485l-256 -354h-147l1011 1382h729z" />
    <glyph glyph-name="Ccedilla" unicode="&#xc7;" horiz-adv-x="1171" 
d="M594 -84q109 -174 -92 -399h-123q102 113 125 185t-29 163zM872 1286q-154 0 -276 -70q-220 -126 -301 -446q-37 -141 -37 -308t87 -264q87 -98 279 -98t357 74l14 -111q-190 -78 -391 -77q-487 0 -487 469q0 384 198 656q96 132 247 209t327 77t328 -43l-37 -119
q-154 51 -308 51z" />
    <glyph glyph-name="Egrave" unicode="&#xc8;" horiz-adv-x="1017" 
d="M1028 1382l-20 -106h-539l-98 -510h516l-21 -104h-514l-104 -553h538l-20 -109h-668l262 1382h668zM825 1577l-34 -78l-361 119l53 111z" />
    <glyph glyph-name="Eacute" unicode="&#xc9;" horiz-adv-x="1017" 
d="M1028 1382l-20 -106h-539l-98 -510h516l-21 -104h-514l-104 -553h538l-20 -109h-668l262 1382h668zM971 1618l-363 -119l-28 78l356 152z" />
    <glyph glyph-name="Ecircumflex" unicode="&#xca;" horiz-adv-x="1017" 
d="M1028 1382l-20 -106h-539l-98 -510h516l-21 -104h-514l-104 -553h538l-20 -109h-668l262 1382h668zM1032 1579l-51 -84l-244 133l-284 -133l-39 78l336 172z" />
    <glyph glyph-name="Edieresis" unicode="&#xcb;" horiz-adv-x="1017" 
d="M1028 1382l-20 -106h-539l-98 -510h516l-21 -104h-514l-104 -553h538l-20 -109h-668l262 1382h668zM582 1594q0 -36 -27 -62t-63 -27q-36 0 -59 25q-23 24 -23 60t26 62q27 26 63 26q35 0 59 -24t24 -60zM1008 1594q0 -36 -27 -62t-63 -27q-36 0 -59 25q-23 24 -23 60
t25 62q26 26 62 26q37 0 61 -24t24 -60z" />
    <glyph glyph-name="Igrave" unicode="&#xcc;" horiz-adv-x="514" 
d="M489 1382l-262 -1382h-129l262 1382h129zM541 1577l-35 -78l-361 119l54 111z" />
    <glyph glyph-name="Iacute" unicode="&#xcd;" horiz-adv-x="514" 
d="M489 1382l-262 -1382h-129l262 1382h129zM741 1618l-364 -119l-27 78l357 152z" />
    <glyph glyph-name="Icircumflex" unicode="&#xce;" horiz-adv-x="514" 
d="M489 1382l-262 -1382h-129l262 1382h129zM762 1579l-51 -84l-244 133l-285 -133l-39 78l336 172z" />
    <glyph glyph-name="Idieresis" unicode="&#xcf;" horiz-adv-x="514" 
d="M489 1382l-262 -1382h-129l262 1382h129zM328 1594q0 -36 -26 -62t-62 -27q-36 0 -59 25q-23 24 -23 60t25 62q26 26 62 26q35 0 59 -24t24 -60zM754 1594q0 -36 -26 -62t-62 -27q-36 0 -61 25q-23 24 -23 60t26 62q27 26 63 26q35 0 59 -24t24 -60z" />
    <glyph glyph-name="Eth" unicode="&#xd0;" horiz-adv-x="1398" 
d="M1214 870q0 412 -481 412q-66 0 -244 -6l-98 -510h316l-21 -102h-313l-105 -547q104 -14 193 -15q193 0 343 67t236 177q174 222 174 524zM1352 885q0 -353 -218 -614q-108 -129 -286 -203t-406 -74q-72 0 -175 4t-148 2l125 664h-224l21 102h221l119 616l373 7
q318 -1 458 -137t140 -367z" />
    <glyph glyph-name="Ntilde" unicode="&#xd1;" horiz-adv-x="1411" 
d="M1389 1382l-265 -1382h-151l-416 956q-78 178 -111 289q-35 -236 -100 -602l-121 -643h-129l262 1382h154l414 -950q66 -152 112 -289q53 326 97 555l122 684h132zM1036 1516q-72 0 -148 57t-118 57q-74 0 -139 -96l-66 53q80 137 213 137q72 0 149 -56t117 -56
q74 0 138 94l67 -53q-82 -137 -213 -137z" />
    <glyph glyph-name="Ograve" unicode="&#xd2;" horiz-adv-x="1417" 
d="M1237 887q0 189 -93 295t-276 106q-262 0 -439 -230t-177 -558q0 -186 93 -295t263 -109q258 0 444 228t185 563zM1378 901q0 -391 -228 -654t-556 -263q-240 0 -362 129t-121 370q0 381 225 649t555 267q233 0 360 -130t127 -368zM1010 1577l-35 -78l-361 119l54 111z
" />
    <glyph glyph-name="Oacute" unicode="&#xd3;" horiz-adv-x="1417" 
d="M1237 887q0 189 -93 295t-276 106q-262 0 -439 -230t-177 -558q0 -186 93 -295t263 -109q258 0 444 228t185 563zM1378 901q0 -391 -228 -654t-556 -263q-240 0 -362 129t-121 370q0 381 225 649t555 267q233 0 360 -130t127 -368zM1227 1618l-365 -119l-26 78l356 152z
" />
    <glyph glyph-name="Ocircumflex" unicode="&#xd4;" horiz-adv-x="1417" 
d="M1237 887q0 189 -93 295t-276 106q-262 0 -439 -230t-177 -558q0 -186 93 -295t263 -109q258 0 444 228t185 563zM1378 901q0 -391 -228 -654t-556 -263q-240 0 -362 129t-121 370q0 381 225 649t555 267q233 0 360 -130t127 -368zM1251 1579l-51 -84l-244 133l-284 -133
l-39 78l334 172z" />
    <glyph glyph-name="Otilde" unicode="&#xd5;" horiz-adv-x="1417" 
d="M1237 887q0 189 -93 295t-276 106q-262 0 -439 -230t-177 -558q0 -186 93 -295t263 -109q258 0 444 228t185 563zM1378 901q0 -391 -228 -654t-556 -263q-240 0 -362 129t-121 370q0 381 225 649t555 267q233 0 360 -130t127 -368zM1090 1516q-72 0 -149 57t-118 57
q-76 0 -137 -96l-68 53q80 137 213 137q72 0 149 -56t118 -56q74 0 137 94l70 -53q-84 -137 -215 -137z" />
    <glyph glyph-name="Odieresis" unicode="&#xd6;" horiz-adv-x="1417" 
d="M1237 887q0 189 -93 295t-276 106q-262 0 -439 -230t-177 -558q0 -186 93 -295t263 -109q258 0 444 228t185 563zM1378 901q0 -391 -228 -654t-556 -263q-240 0 -362 129t-121 370q0 381 225 649t555 267q233 0 360 -130t127 -368zM827 1594q-1 -36 -27 -62t-62 -27
q-36 0 -60 25q-24 24 -23 60q0 36 26 62q25 26 61 26t61 -24q24 -24 24 -60zM1251 1594q1 -36 -25 -62t-62 -27q-36 0 -60 25q-24 24 -23 60q0 36 26 62q25 26 61 26t60 -24q23 -24 23 -60z" />
    <glyph glyph-name="multiply" unicode="&#xd7;" 
d="M1090 969l-433 -365l295 -364l-86 -70l-293 362l-432 -362l-67 80l434 362l-295 365l86 70l295 -363l430 363z" />
    <glyph glyph-name="Oslash" unicode="&#xd8;" horiz-adv-x="1417" 
d="M250 492q0 -221 133 -322l612 1102q-61 16 -135 16q-170 -2 -311 -110t-220 -286q-79 -179 -79 -400zM1237 887q0 244 -145 340l-619 -1108q61 -25 145 -21q254 4 436 232t183 557zM1378 901q0 -391 -228 -654t-556 -263q-102 0 -182 24l-117 -209l-94 47l112 201
q-203 119 -202 436q0 381 224 649t554 267q96 0 166 -21l108 195l94 -47l-104 -185q225 -116 225 -440z" />
    <glyph glyph-name="Ugrave" unicode="&#xd9;" horiz-adv-x="1402" 
d="M594 -16q-289 0 -374 138t-40 341l176 919h129l-176 -917q-37 -191 32 -283t271 -92t316 98q115 98 159 336l164 858h127l-166 -876q-98 -522 -618 -522zM979 1577l-33 -78l-360 119l53 111z" />
    <glyph glyph-name="Uacute" unicode="&#xda;" horiz-adv-x="1402" 
d="M594 -16q-289 0 -374 138t-40 341l176 919h129l-176 -917q-37 -191 32 -283t271 -92t316 98q115 98 159 336l164 858h127l-166 -876q-98 -522 -618 -522zM1196 1618l-362 -119l-29 78l356 152z" />
    <glyph glyph-name="Ucircumflex" unicode="&#xdb;" horiz-adv-x="1402" 
d="M594 -16q-289 0 -374 138t-40 341l176 919h129l-176 -917q-37 -191 32 -283t271 -92t316 98q115 98 159 336l164 858h127l-166 -876q-98 -522 -618 -522zM1206 1579l-49 -84l-244 133l-286 -133l-37 78l334 172z" />
    <glyph glyph-name="Udieresis" unicode="&#xdc;" horiz-adv-x="1402" 
d="M594 -16q-289 0 -374 138t-40 341l176 919h129l-176 -917q-37 -191 32 -283t271 -92t316 98q115 98 159 336l164 858h127l-166 -876q-98 -522 -618 -522zM754 1594q0 -36 -27 -62t-63 -27q-36 0 -59 25q-23 24 -23 60t26 62q27 26 63 26q35 0 59 -24t24 -60zM1180 1594
q0 -36 -27 -62t-63 -27q-36 0 -59 25q-23 24 -23 60t25 62q26 26 62 26q37 0 61 -24t24 -60z" />
    <glyph glyph-name="Yacute" unicode="&#xdd;" horiz-adv-x="1040" 
d="M1180 1382l-600 -878l-97 -504h-129l97 504l-256 878h133l145 -514q33 -121 62 -250h2q39 72 172 273l321 491h150zM1008 1618l-365 -119l-29 78l357 152z" />
    <glyph glyph-name="Thorn" unicode="&#xde;" horiz-adv-x="1038" 
d="M922 813q0 246 -322 246q-100 0 -176 -12l-121 -637q76 -10 148 -11q221 0 346 121t125 293zM1059 836q0 -221 -172 -383t-467 -162q-84 0 -139 8l-56 -299h-129l262 1382h129l-41 -221q92 6 195 6q211 -1 315 -91t103 -240z" />
    <glyph glyph-name="germandbls" unicode="&#xdf;" horiz-adv-x="1130" 
d="M1067 1295q0 -155 -93 -231q-70 -56 -169 -119t-99 -162q1 -98 95 -190q39 -38 79 -77q95 -93 95 -221q0 -129 -113 -220t-291 -91q-88 0 -165 12l24 125q86 -27 182 -27t164 51q66 51 66 141t-94 184q-39 38 -78 77q-95 95 -95 211q0 70 27 125t67 87q52 42 174 124
q93 63 93 170q0 61 -44 99t-128 38q-135 0 -219 -85t-121 -274l-211 -1110q-51 -258 -157 -360t-296 -102q-53 0 -143 16l31 115q63 -20 143 -21q125 0 190 73t103 277l209 1102q47 244 168 358t321 113q135 1 210 -61t75 -147z" />
    <glyph glyph-name="agrave" unicode="&#xe0;" horiz-adv-x="1095" 
d="M836 1245l-76 -61l-230 248l99 77zM666 930q-104 0 -199 -56q-167 -98 -229 -351q-27 -105 -27 -216q0 -217 121 -217q106 0 219 128t186 292q74 164 101 305l18 92q-86 23 -190 23zM299 -18q-219 0 -219 296t146 517q73 109 198 172q124 63 284 63t291 -29l-190 -1001
h-131q23 123 133 477l-4 2q-70 -165 -172 -306q-63 -87 -151 -139t-185 -52z" />
    <glyph glyph-name="aacute" unicode="&#xe1;" horiz-adv-x="1095" 
d="M1022 1419l-293 -235l-57 71l274 254zM666 930q-104 0 -199 -56q-167 -98 -229 -351q-27 -105 -27 -216q0 -217 121 -217q106 0 219 128t186 292q74 164 101 305l18 92q-86 23 -190 23zM299 -18q-219 0 -219 296t146 517q73 109 198 172q124 63 284 63t291 -29
l-190 -1001h-131q23 123 133 477l-4 2q-70 -165 -172 -306q-63 -87 -151 -139t-185 -52z" />
    <glyph glyph-name="acircumflex" unicode="&#xe2;" horiz-adv-x="1095" 
d="M999 1249l-69 -65l-166 178l-223 -178l-58 61l301 264zM666 930q-104 0 -199 -56q-167 -98 -229 -351q-27 -105 -27 -216q0 -217 121 -217q106 0 219 128t186 292q74 164 101 305l18 92q-86 23 -190 23zM299 -18q-219 0 -219 296t146 517q73 109 198 172q124 63 284 63
t291 -29l-190 -1001h-131q23 123 133 477l-4 2q-70 -165 -172 -306q-63 -87 -151 -139t-185 -52z" />
    <glyph glyph-name="atilde" unicode="&#xe3;" horiz-adv-x="1095" 
d="M862 1239q-70 0 -142 58t-110 59q-70 0 -133 -99l-67 58q78 141 204 141q70 0 145 -58t113 -59q70 0 129 97l70 -56q-80 -141 -209 -141zM666 930q-104 0 -199 -56q-167 -98 -229 -351q-27 -105 -27 -216q0 -217 121 -217q106 0 219 128t186 292q74 164 101 305l18 92
q-86 23 -190 23zM299 -18q-219 0 -219 296t146 517q73 109 198 172q124 63 284 63t291 -29l-190 -1001h-131q23 123 133 477l-4 2q-70 -165 -172 -306q-63 -87 -151 -139t-185 -52z" />
    <glyph glyph-name="adieresis" unicode="&#xe4;" horiz-adv-x="1095" 
d="M530 1436q36 0 62 -24q24 -24 24 -61q0 -38 -26 -65q-26 -26 -64 -26t-62 24t-24 62t27 64t63 26zM993 1351q-1 -38 -27 -65q-26 -26 -63 -26t-61 26t-25 62q0 36 28 62q29 26 65 26t60 -24t23 -61zM666 930q-104 0 -199 -56q-167 -98 -229 -351q-27 -105 -27 -216
q0 -217 121 -217q106 0 219 128t186 292q74 164 101 305l18 92q-86 23 -190 23zM299 -18q-219 0 -219 296t146 517q73 109 198 172q124 63 284 63t291 -29l-190 -1001h-131q23 123 133 477l-4 2q-70 -165 -172 -306q-63 -87 -151 -139t-185 -52z" />
    <glyph glyph-name="aring" unicode="&#xe5;" horiz-adv-x="1095" 
d="M901 1356q0 51 -31 84q-30 33 -80 33t-88 -38q-38 -37 -36 -89q0 -52 32 -86t79 -33q48 0 86 39t38 90zM993 1359q1 -87 -67 -152t-154 -65t-142 55q-56 54 -56 143q0 88 67 152q68 64 154 64t142 -55t56 -142zM666 930q-104 0 -199 -56q-167 -98 -229 -351
q-27 -105 -27 -216q0 -217 121 -217q106 0 219 128t186 292q74 164 101 305l18 92q-86 23 -190 23zM299 -18q-219 0 -219 296t146 517q73 109 198 172q124 63 284 63t291 -29l-190 -1001h-131q23 123 133 477l-4 2q-70 -165 -172 -306q-63 -87 -151 -139t-185 -52z" />
    <glyph glyph-name="ae" unicode="&#xe6;" horiz-adv-x="1564" 
d="M178 222q0 -62 39 -97t98 -35q139 0 247 110t140 267q-238 -15 -381 -65t-143 -180zM1376 803q0 61 -44 96t-115 35q-131 0 -223 -98t-138 -256q252 19 352 51q100 31 134 71t34 101zM1509 815q0 -147 -145 -233t-530 -109q-12 -74 -13 -147q0 -138 53 -186
q52 -48 194 -48t278 60v-109q-140 -59 -312 -59t-242 64t-90 183q-52 -98 -166 -173q-114 -74 -241 -74t-190 53q-62 53 -62 143q0 244 283 329q151 46 397 62l16 78q29 143 -11 213t-186 70t-300 -92v118q176 76 328 76t214 -47q61 -47 82 -131q60 74 156 126t222 52
t196 -61q69 -62 69 -158z" />
    <glyph glyph-name="ccedilla" unicode="&#xe7;" horiz-adv-x="856" 
d="M397 -84q109 -174 -92 -399h-123q102 113 125 185t-28 163zM628 930q-122 0 -222 -95t-144 -225t-45 -268q0 -244 236 -244q127 0 247 56l13 -107q-147 -59 -293 -59q-340 0 -340 323q0 303 156 512t419 209q118 0 224 -37l-29 -110q-100 45 -222 45z" />
    <glyph glyph-name="egrave" unicode="&#xe8;" horiz-adv-x="962" 
d="M770 1245l-76 -61l-229 248l98 77zM776 801q0 63 -44 98t-116 35q-131 0 -224 -98t-136 -256q272 10 396 64t124 157zM909 815q0 -317 -676 -344q-12 -70 -12 -145q0 -138 52 -186q53 -48 193 -48t275 58l9 -105q-144 -61 -322 -61t-260 74t-82 254q0 181 61 345
q61 165 189 271t280 106t223 -61q70 -62 70 -158z" />
    <glyph glyph-name="eacute" unicode="&#xe9;" horiz-adv-x="962" 
d="M934 1419l-293 -235l-57 71l274 254zM776 801q0 63 -44 98t-116 35q-131 0 -224 -98t-136 -256q272 10 396 64t124 157zM909 815q0 -317 -676 -344q-12 -70 -12 -145q0 -138 52 -186q53 -48 193 -48t275 58l9 -105q-144 -61 -322 -61t-260 74t-82 254q0 181 61 345
q61 165 189 271t280 106t223 -61q70 -62 70 -158z" />
    <glyph glyph-name="ecircumflex" unicode="&#xea;" horiz-adv-x="962" 
d="M915 1249l-69 -65l-166 178l-223 -178l-58 61l301 264zM776 801q0 63 -44 98t-116 35q-131 0 -224 -98t-136 -256q272 10 396 64t124 157zM909 815q0 -317 -676 -344q-12 -70 -12 -145q0 -138 52 -186q53 -48 193 -48t275 58l9 -105q-144 -61 -322 -61t-260 74t-82 254
q0 181 61 345q61 165 189 271t280 106t223 -61q70 -62 70 -158z" />
    <glyph glyph-name="edieresis" unicode="&#xeb;" horiz-adv-x="962" 
d="M502 1436q38 0 62 -24t24 -61q0 -38 -27 -65q-27 -26 -63 -26t-62 24q-24 24 -24 62t26 64q27 26 64 26zM881 1436q37 0 61 -24t23 -61q0 -38 -27 -65q-27 -26 -64 -26q-38 0 -62 26t-24 62t28 62t65 26zM776 801q0 63 -44 98t-116 35q-131 0 -224 -98t-136 -256
q272 10 396 64t124 157zM909 815q0 -317 -676 -344q-12 -70 -12 -145q0 -138 52 -186q53 -48 193 -48t275 58l9 -105q-144 -61 -322 -61t-260 74t-82 254q0 181 61 345q61 165 189 271t280 106t223 -61q70 -62 70 -158z" />
    <glyph glyph-name="igrave" unicode="&#xec;" horiz-adv-x="509" 
d="M506 1245l-76 -61l-229 248l98 77zM416 1018l-195 -1018h-125l195 1018h125z" />
    <glyph glyph-name="iacute" unicode="&#xed;" horiz-adv-x="509" 
d="M614 1419l-292 -235l-58 71l275 254zM416 1018l-195 -1018h-125l195 1018h125z" />
    <glyph glyph-name="icircumflex" unicode="&#xee;" horiz-adv-x="509" 
d="M647 1249l-69 -65l-166 178l-224 -178l-57 61l301 264zM416 1018l-195 -1018h-125l195 1018h125z" />
    <glyph glyph-name="idieresis" unicode="&#xef;" horiz-adv-x="509" 
d="M226 1436q36 0 60 -24t25 -61q-1 -38 -27 -65q-26 -26 -63 -26t-61 24t-25 62q0 38 27 64q28 26 64 26zM688 1351q0 -38 -26 -65q-26 -26 -64 -26t-62 26t-24 62t28 62t64 26t60 -24t24 -61zM416 1018l-195 -1018h-125l195 1018h125z" />
    <glyph glyph-name="eth" unicode="&#xf0;" horiz-adv-x="1083" 
d="M879 670q1 120 -63 190t-185 70q-188 0 -305 -169t-117 -382q1 -137 67 -213t182 -76t202 64q143 106 197 346q22 92 22 170zM1018 732q0 -300 -155 -524t-421 -224q-176 0 -271 91t-95 269t65 333q66 155 199 256q134 101 316 101t227 -114q-14 55 -54 148t-96 171
l-241 -100l-43 82l225 94q-45 55 -135 141l127 60q86 -82 135 -148l239 98l41 -84l-225 -94q162 -256 162 -556z" />
    <glyph glyph-name="ntilde" unicode="&#xf1;" horiz-adv-x="1159" 
d="M858 1239q-70 0 -142 58t-110 59q-70 0 -133 -99l-67 58q78 141 204 141q70 0 145 -58t113 -59q70 0 129 97l70 -56q-80 -141 -209 -141zM784 1036q285 0 220 -350l-132 -686h-127l125 659q53 268 -108 269q-104 0 -216 -127t-186 -291t-100 -303l-39 -207h-125l103 530
q0 6 44 244t46 244h131q-29 -147 -129 -461l4 -2q84 205 213 343q130 138 276 138z" />
    <glyph glyph-name="ograve" unicode="&#xf2;" horiz-adv-x="1095" 
d="M807 1245l-76 -61l-229 248l98 77zM887 659q0 268 -248 269q-182 0 -302 -167t-120 -394q0 -274 248 -275q168 0 295 158t127 409zM1022 672q0 -304 -174 -496t-408 -192q-176 0 -266 91t-90 267q0 297 162 495t411 197q181 0 273 -97t92 -265z" />
    <glyph glyph-name="oacute" unicode="&#xf3;" horiz-adv-x="1095" 
d="M973 1419l-293 -235l-57 71l274 254zM887 659q0 268 -248 269q-182 0 -302 -167t-120 -394q0 -274 248 -275q168 0 295 158t127 409zM1022 672q0 -304 -174 -496t-408 -192q-176 0 -266 91t-90 267q0 297 162 495t411 197q181 0 273 -97t92 -265z" />
    <glyph glyph-name="ocircumflex" unicode="&#xf4;" horiz-adv-x="1095" 
d="M983 1249l-70 -65l-165 178l-224 -178l-57 61l301 264zM887 659q0 268 -248 269q-182 0 -302 -167t-120 -394q0 -274 248 -275q168 0 295 158t127 409zM1022 672q0 -304 -174 -496t-408 -192q-176 0 -266 91t-90 267q0 297 162 495t411 197q181 0 273 -97t92 -265z" />
    <glyph glyph-name="otilde" unicode="&#xf5;" horiz-adv-x="1095" 
d="M836 1239q-70 0 -142 58t-110 59q-68 0 -133 -99l-68 58q78 141 205 141q70 0 144 -58t114 -59q70 0 129 97l69 -56q-80 -141 -208 -141zM887 659q0 268 -248 269q-182 0 -302 -167t-120 -394q0 -274 248 -275q168 0 295 158t127 409zM1022 672q0 -304 -174 -496
t-408 -192q-176 0 -266 91t-90 267q0 297 162 495t411 197q181 0 273 -97t92 -265z" />
    <glyph glyph-name="odieresis" unicode="&#xf6;" horiz-adv-x="1095" 
d="M537 1436q37 0 61 -24t25 -61q0 -38 -27 -65q-27 -26 -64 -26q-38 0 -62 24t-24 62t27 64t64 26zM999 1351q-1 -38 -27 -65q-26 -26 -63 -26t-61 26t-25 62q0 36 28 62q29 26 65 26t60 -24t23 -61zM887 659q0 268 -248 269q-182 0 -302 -167t-120 -394q0 -274 248 -275
q168 0 295 158t127 409zM1022 672q0 -304 -174 -496t-408 -192q-176 0 -266 91t-90 267q0 297 162 495t411 197q181 0 273 -97t92 -265z" />
    <glyph glyph-name="divide" unicode="&#xf7;" 
d="M592 197q0 -41 -28 -70t-68 -29t-69 28q-28 28 -28 69t28 69t69 29q40 1 68 -27t28 -69zM1065 664l-21 -109h-946l23 109h944zM754 1022q0 -41 -29 -70q-29 -28 -69 -28t-68 28t-27 70q0 41 29 70q28 28 68 28t68 -28t28 -70z" />
    <glyph glyph-name="oslash" unicode="&#xf8;" horiz-adv-x="1095" 
d="M213 369q0 -135 63 -209l431 764q-33 6 -74 6q-180 -2 -300 -168t-120 -393zM889 659q0 160 -92 226l-437 -779q49 -18 111 -16q166 2 292 162t126 407zM1022 672q0 -304 -174 -496t-408 -192q-80 0 -137 18l-119 -209l-88 47l115 205q-127 86 -127 297q0 295 161 494
t412 198q55 0 107 -10l113 199l88 -45l-107 -187q164 -88 164 -319z" />
    <glyph glyph-name="ugrave" unicode="&#xf9;" horiz-adv-x="1159" 
d="M797 1245l-76 -61l-229 248l98 77zM378 -18q-285 0 -220 350l133 686h125l-125 -660q-53 -268 108 -268q104 0 216 127t186 291t100 303l39 207h125l-102 -531q0 -5 -44 -243t-47 -244h-129q23 133 127 461l-4 2q-84 -205 -213 -343t-275 -138z" />
    <glyph glyph-name="uacute" unicode="&#xfa;" horiz-adv-x="1159" 
d="M977 1419l-293 -235l-57 71l274 254zM378 -18q-285 0 -220 350l133 686h125l-125 -660q-53 -268 108 -268q104 0 216 127t186 291t100 303l39 207h125l-102 -531q0 -5 -44 -243t-47 -244h-129q23 133 127 461l-4 2q-84 -205 -213 -343t-275 -138z" />
    <glyph glyph-name="ucircumflex" unicode="&#xfb;" horiz-adv-x="1159" 
d="M975 1249l-70 -65l-166 178l-223 -178l-57 61l301 264zM378 -18q-285 0 -220 350l133 686h125l-125 -660q-53 -268 108 -268q104 0 216 127t186 291t100 303l39 207h125l-102 -531q0 -5 -44 -243t-47 -244h-129q23 133 127 461l-4 2q-84 -205 -213 -343t-275 -138z" />
    <glyph glyph-name="udieresis" unicode="&#xfc;" horiz-adv-x="1159" 
d="M541 1436q37 0 61 -24t25 -61q0 -38 -27 -65q-28 -26 -64 -26t-61 24t-25 62t27 64t64 26zM920 1436q36 0 60 -24t24 -61q0 -38 -27 -65q-27 -26 -64 -26t-61 26t-25 62q0 36 28 62t65 26zM378 -18q-285 0 -220 350l133 686h125l-125 -660q-53 -268 108 -268
q104 0 216 127t186 291t100 303l39 207h125l-102 -531q0 -5 -44 -243t-47 -244h-129q23 133 127 461l-4 2q-84 -205 -213 -343t-275 -138z" />
    <glyph glyph-name="yacute" unicode="&#xfd;" horiz-adv-x="956" 
d="M848 1419l-293 -235l-57 71l274 254zM-143 -528q-80 0 -138 14l25 123q55 -20 129 -21q125 0 253 144t128 368q0 395 -143 918h145q123 -492 123 -850q0 -63 -19 -156h2q252 430 512 1047l117 -39q-432 -1018 -786 -1370q-182 -178 -348 -178z" />
    <glyph glyph-name="thorn" unicode="&#xfe;" horiz-adv-x="1095" 
d="M889 711q0 217 -123 217q-106 0 -218 -128t-184 -290t-102 -301l-16 -90q86 -29 188 -29t198 56q166 98 230 349q27 105 27 216zM389 -12q-74 0 -168 14l-96 -516h-127l385 2009h127l-90 -459q-39 -201 -129 -487l6 -2q86 217 215 353t289 136q219 0 219 -298t-148 -515
q-74 -109 -198 -172t-285 -63z" />
    <glyph glyph-name="ydieresis" unicode="&#xff;" horiz-adv-x="956" 
d="M392 1436q36 0 60 -24t25 -61q-1 -38 -27 -65q-26 -26 -63 -26t-61 24t-25 62q0 38 27 64q28 26 64 26zM770 1436q36 0 60 -24t24 -61q0 -38 -27 -65q-27 -26 -63 -26t-62 26q-24 26 -24 62t28 62t64 26zM-143 -528q-80 0 -138 14l25 123q55 -20 129 -21q125 0 253 144
t128 368q0 395 -143 918h145q123 -492 123 -850q0 -63 -19 -156h2q252 430 512 1047l117 -39q-432 -1018 -786 -1370q-182 -178 -348 -178z" />
    <glyph glyph-name="dotlessi" unicode="&#x131;" horiz-adv-x="509" 
d="M416 1018l-195 -1018h-125l195 1018h125z" />
    <glyph glyph-name="Lslash" unicode="&#x141;" horiz-adv-x="870" 
d="M784 109l-20 -109h-647l114 606l-211 -76l-24 97l258 92l125 663h131l-119 -616l244 86l27 -96l-291 -103l-103 -544h516z" />
    <glyph glyph-name="lslash" unicode="&#x142;" horiz-adv-x="552" 
d="M582 834l22 -99l-235 -82l-125 -653h-127l114 608l-211 -78l-22 97l256 92l147 776h127l-139 -729z" />
    <glyph glyph-name="OE" unicode="&#x152;" horiz-adv-x="1736" 
d="M252 500q0 -188 92 -296t264 -108q133 0 232 27l213 1137q-92 29 -185 28q-262 0 -439 -230t-177 -558zM594 -16q-240 0 -362 129t-121 370q0 381 225 649t555 267q104 0 196 -17h660l-21 -106h-540l-96 -510h514l-19 -104h-516l-102 -553h538l-22 -109h-664
q-125 -16 -225 -16z" />
    <glyph glyph-name="oe" unicode="&#x153;" horiz-adv-x="1726" 
d="M887 659q0 268 -248 269q-182 0 -302 -167t-120 -394q0 -274 248 -275q168 0 295 158t127 409zM1538 801q0 63 -44 98t-116 35q-129 0 -223 -98t-137 -256q272 10 396 64t124 157zM1671 815q0 -317 -674 -344q-14 -82 -14 -145q0 -138 53 -186q52 -48 194 -48t273 58
l10 -105q-150 -61 -335 -61q-276 0 -314 223q-76 -103 -190 -163t-234 -60q-176 0 -266 91t-90 267q0 297 162 495q162 197 420 197t329 -223q152 223 400 223q137 0 207 -61q69 -62 69 -158z" />
    <glyph glyph-name="Scaron" unicode="&#x160;" horiz-adv-x="919" 
d="M342 1043q0 -91 45 -152t110 -105t131 -92q154 -111 154 -286q0 -176 -148 -300t-378 -124q-129 0 -213 28l27 129q98 -43 200 -43q176 0 276 83q99 83 99 213t-153 237q-63 43 -127 89q-63 46 -109 118q-45 72 -45 163q0 166 130 282t355 116q105 -1 193 -19l-23 -118
q-90 31 -192 30q-160 0 -246 -79t-86 -170zM999 1665l-333 -170l-283 166l49 84l244 -133l285 133z" />
    <glyph glyph-name="scaron" unicode="&#x161;" horiz-adv-x="786" 
d="M817 1446l-301 -262l-215 258l70 67l166 -180l223 180zM510 932q-100 0 -160 -49q-61 -49 -61 -119t53 -124q52 -56 116 -93t117 -102t54 -142q0 -133 -113 -226t-307 -93q-94 0 -170 12l24 125q90 -27 191 -27q100 0 172 49t72 142q0 59 -54 112t-116 90
q-63 37 -117 104q-53 67 -53 150q0 127 100 210t279 83q94 0 176 -16l-25 -111q-78 25 -178 25z" />
    <glyph glyph-name="Ydieresis" unicode="&#x178;" horiz-adv-x="1040" 
d="M1180 1382l-600 -878l-97 -504h-129l97 504l-256 878h133l145 -514q33 -121 62 -250h2q39 72 172 273l321 491h150zM580 1594q0 -36 -27 -62t-63 -27q-36 0 -59 25q-23 24 -23 60t25 62q26 26 62 26q37 0 61 -24t24 -60zM1004 1594q0 -36 -26 -62t-62 -27q-36 0 -60 25
q-24 24 -22 60q0 36 25 62q26 26 62 26q35 0 59 -24t24 -60z" />
    <glyph glyph-name="Zcaron" unicode="&#x17d;" horiz-adv-x="1058" 
d="M539 119h356l-25 -119h-874l18 92l779 985q49 63 165 193q-156 -4 -321 -4h-377l23 116h843l-16 -94l-823 -1034q-27 -37 -117 -139q47 4 369 4zM1077 1665l-334 -170l-282 166l49 84l244 -133l286 133z" />
    <glyph glyph-name="zcaron" unicode="&#x17e;" horiz-adv-x="872" 
d="M866 1446l-301 -262l-215 258l70 67l166 -180l223 180zM467 119h225l-24 -119h-666l16 90l660 817q-143 -4 -281 -4h-213l23 115h645l-16 -88l-658 -815q131 4 289 4z" />
    <glyph glyph-name="florin" unicode="&#x192;" 
d="M998 1329q-202 0 -279 -276l-101 -344h318l-18 -101h-326l-160 -561q-55 -193 -165 -283t-281 -90q-84 0 -181 27l29 111q92 -33 180 -33q211 0 287 270l160 559h-238l19 101h245l103 350q55 195 165 285t281 90q85 0 181 -27l-29 -111q-92 33 -190 33z" />
    <glyph glyph-name="circumflex" unicode="&#x2c6;" horiz-adv-x="878" 
d="M776 1249l-69 -65l-166 178l-224 -178l-57 61l301 264z" />
    <glyph glyph-name="caron" unicode="&#x2c7;" horiz-adv-x="878" 
d="M780 1446l-301 -262l-215 258l70 67l166 -180l223 180z" />
    <glyph glyph-name="breve" unicode="&#x2d8;" horiz-adv-x="841" 
d="M587 1321q64 0 109 39t60 106h98q-18 -104 -92 -176t-190 -72t-162 72t-25 176h88q-10 -61 20 -103t94 -42z" />
    <glyph glyph-name="dotaccent" unicode="&#x2d9;" horiz-adv-x="563" 
d="M458 1440q38 0 64 -26t25 -63q0 -38 -28 -67q-27 -29 -65 -29t-64 26q-26 27 -26 65t28 66t66 28z" />
    <glyph glyph-name="ring" unicode="&#x2da;" horiz-adv-x="792" 
d="M690 1350q0 51 -31 84q-31 32 -81 32t-86 -38q-37 -38 -37 -89q-1 -51 31 -85t80 -34t86 40q38 39 38 90zM782 1353q0 -87 -68 -152t-153 -65q-86 0 -142 55q-57 54 -57 143q0 88 68 152t154 64t142 -55t56 -142z" />
    <glyph glyph-name="ogonek" unicode="&#x2db;" horiz-adv-x="542" 
d="M80 -416q-148 0 -148 134q0 66 56 146q56 81 151 136h154q-221 -131 -221 -252q0 -53 53 -53t104 61l64 -55q-86 -117 -213 -117z" />
    <glyph glyph-name="tilde" unicode="&#x2dc;" horiz-adv-x="1038" 
d="M717 1239q-70 0 -142 58t-110 59q-68 0 -133 -99l-68 58q78 141 205 141q71 0 145 -58t113 -59q70 0 129 97l70 -56q-80 -141 -209 -141z" />
    <glyph glyph-name="hungarumlaut" unicode="&#x2dd;" horiz-adv-x="972" 
d="M662 1434l-279 -250l-66 61l267 266zM997 1421l-290 -237l-64 61l279 258z" />
    <glyph glyph-name="Delta" unicode="&#x394;" horiz-adv-x="1435" 
d="M1124 115l-241 1188l-684 -1188h925zM1280 0h-1286l840 1434h143z" />
    <glyph glyph-name="Omega" unicode="&#x3a9;" horiz-adv-x="1667" 
d="M1427 891q0 -178 -89 -397q-46 -114 -138 -220t-215 -176h307l-18 -98h-434l20 111q211 131 323 335q111 204 111 414q0 211 -93 324t-279 112q-150 0 -271 -74q-208 -126 -300 -428q-38 -126 -38 -245q0 -270 207 -438l-22 -111h-441l21 98h321q-209 154 -209 445
q0 246 127 477t357 327q127 52 276 52q223 0 350 -131t127 -377z" />
    <glyph glyph-name="mu" unicode="&#x3bc;" horiz-adv-x="1253" 
d="M414 90q129 0 274 175t197 444l59 309h125l-141 -744q-18 -104 -8 -139t47 -35q57 0 102 82l66 -43q-82 -156 -213 -155q-133 0 -134 137q0 68 39 190l-4 2q-39 -109 -172 -219t-249 -110t-177 73l-90 -571h-135l293 1532h125l-125 -660q-25 -128 10 -198t111 -70z" />
    <glyph glyph-name="pi" unicode="&#x3c0;" horiz-adv-x="1351" 
d="M982 88q72 0 122 16l-2 -102q-84 -18 -172 -18q-123 0 -155 72t3 218l121 641h-424l-172 -915h-125l174 915h-235l20 103h1145l-20 -103h-238l-98 -512q-39 -207 -28 -261q12 -54 84 -54z" />
    <glyph glyph-name="endash" unicode="&#x2013;" 
d="M1155 664l-20 -109h-1127l21 109h1126z" />
    <glyph glyph-name="emdash" unicode="&#x2014;" horiz-adv-x="2048" 
d="M1825 664l-21 -109h-1544l23 109h1542z" />
    <glyph glyph-name="quoteleft" unicode="&#x2018;" horiz-adv-x="456" 
d="M338 1059q-72 0 -88 71q-29 113 104 263q61 70 150 133l49 -60q-201 -168 -141 -282q23 -41 -1 -83t-73 -42z" />
    <glyph glyph-name="quoteright" unicode="&#x2019;" horiz-adv-x="456" 
d="M412 1513q74 0 90 -73q27 -115 -111 -266q-59 -66 -143 -127l-49 59q199 168 139 283q-23 43 1 83t73 41z" />
    <glyph glyph-name="quotesinglbase" unicode="&#x201a;" horiz-adv-x="456" 
d="M143 180q74 0 90 -74q27 -115 -110 -266q-59 -66 -143 -127l-52 60q201 168 142 282q-24 43 0 84t73 41z" />
    <glyph glyph-name="quotedblleft" unicode="&#x201c;" horiz-adv-x="794" 
d="M338 1059q-72 0 -88 74q-29 113 104 262q61 68 150 131l49 -58q-201 -170 -141 -282q23 -43 -1 -85t-73 -42zM682 1059q-74 0 -90 74q-27 115 108 264q59 66 146 129l49 -58q-201 -170 -141 -282q23 -43 0 -85t-72 -42z" />
    <glyph glyph-name="quotedblright" unicode="&#x201d;" horiz-adv-x="794" 
d="M412 1516q74 0 90 -74q27 -115 -111 -266q-59 -66 -143 -127l-49 59q203 170 139 281q-23 43 1 85t73 42zM754 1516q72 0 88 -72q27 -115 -109 -266q-61 -66 -145 -129l-49 59q201 168 141 281q-23 43 1 85t73 42z" />
    <glyph glyph-name="quotedblbase" unicode="&#x201e;" horiz-adv-x="794" 
d="M143 180q74 0 90 -74q27 -115 -110 -266q-59 -66 -143 -127l-52 60q201 168 142 282q-24 43 0 84t73 41zM485 180q74 0 90 -74q27 -115 -110 -266q-59 -66 -143 -127l-50 60q201 170 140 282q-24 43 0 84t73 41z" />
    <glyph glyph-name="dagger" unicode="&#x2020;" horiz-adv-x="886" 
d="M930 1276l-21 -100h-286l-17 -215l-127 -508h-88l66 508l67 215h-286l16 100h291l24 283h152l-80 -283h289z" />
    <glyph glyph-name="daggerdbl" unicode="&#x2021;" horiz-adv-x="886" 
d="M930 1280l-19 -100h-288l-19 -232l-69 -229h286l-18 -101h-287l-29 -278h-149l80 278h-289l21 101h286l17 229l73 232h-288l18 100h289l24 279h152l-78 -279h287z" />
    <glyph glyph-name="bullet" unicode="&#x2022;" horiz-adv-x="858" 
d="M242 604q0 86 62 148t148 63q86 -1 145 -59q58 -58 58 -144t-62 -148q-63 -62 -149 -62t-144 58t-58 144z" />
    <glyph glyph-name="ellipsis" unicode="&#x2026;" horiz-adv-x="1251" 
d="M242 85q0 -40 -31 -71q-31 -30 -71 -30t-66 28t-25 68q0 41 30 71q30 29 71 29q40 0 66 -28t26 -67zM645 86q0 -41 -30 -72q-29 -30 -69 -30t-66 28t-26 68q0 41 30 71q30 29 71 29t66 -26q24 -27 24 -68zM1051 86q0 -41 -30 -72q-30 -30 -70 -30q-39 0 -65 28t-26 68
q0 41 30 71q30 29 71 29t65 -26t25 -68z" />
    <glyph glyph-name="perthousand" unicode="&#x2030;" horiz-adv-x="2023" 
d="M1128 385q0 115 -114 115q-70 0 -120 -52q-89 -93 -89 -251q0 -119 115 -119q104 0 156 96t52 211zM633 1135q0 119 -115 118q-102 0 -156 -96t-53 -211q0 -115 115 -115q72 -1 122 53q87 94 87 251zM1755 385q0 115 -115 115q-70 0 -118 -52q-88 -95 -88 -251
q0 -119 114 -119q102 0 155 96q52 96 52 211zM1241 391q0 -162 -92 -285t-246 -122q-209 0 -209 202q0 158 91 283t245 125q211 0 211 -203zM1415 1288l-1325 -1317l-65 68l1321 1321zM745 1145q0 -162 -92 -285t-245 -123q-209 0 -209 203q0 158 91 283t245 125
q210 0 210 -203zM1868 391q0 -162 -91 -285t-245 -122q-211 0 -211 202q0 156 91 282t245 126q211 0 211 -203z" />
    <glyph glyph-name="guilsinglleft" unicode="&#x2039;" horiz-adv-x="630" 
d="M539 887l-260 -283l161 -285l-100 -63l-195 356l308 340z" />
    <glyph glyph-name="guilsinglright" unicode="&#x203a;" horiz-adv-x="630" 
d="M530 596l-305 -340l-88 68l262 282l-161 285l98 61z" />
    <glyph glyph-name="fraction" unicode="&#x2044;" horiz-adv-x="815" 
d="M1073 1358l-1100 -1403l-84 68l1098 1402z" />
    <glyph glyph-name="uni20AC" unicode="&#x20ac;" 
d="M881 1243q-317 0 -461 -375h428l-19 -94h-440q-29 -102 -39 -207h441l-17 -94h-432q-12 -186 54 -282q67 -95 257 -95q133 0 283 62l25 -105q-164 -70 -336 -69q-246 0 -339 128t-81 361h-189l17 94h182q10 111 41 207h-184l18 94h197q76 211 228 345q153 134 392 135
q143 -1 258 -56l-41 -110q-115 61 -243 61z" />
    <glyph glyph-name="trademark" unicode="&#x2122;" horiz-adv-x="1417" 
d="M696 1382l-14 -82h-156l-94 -493h-108l96 493h-158l14 82h420zM1372 1382l-26 -575h-103l14 340l9 119l-47 -101l-179 -358h-112l-37 362l-8 97l-150 -459h-96l192 575h144l35 -360l6 -102l35 92l184 370h139z" />
    <glyph glyph-name="partialdiff" unicode="&#x2202;" horiz-adv-x="1292" 
d="M948 524q0 106 -69 179t-217 73t-256 -120t-109 -300q0 -122 67 -192t187 -70q157 0 277 125t120 305zM1192 973q0 -356 -161 -658q-79 -147 -210 -239t-305 -92t-263 97t-89 253q0 238 152 394t380 157q125 -1 218 -63t118 -171q2 19 16 123q48 343 -99 504
q-110 121 -312 121l37 104q250 -7 384 -153t134 -377z" />
    <glyph glyph-name="product" unicode="&#x220f;" horiz-adv-x="1751" 
d="M1669 1495l-20 -113h-226l-366 -1896h-125l366 1896h-682l-366 -1896h-125l369 1896h-226l21 113h1380z" />
    <glyph glyph-name="summation" unicode="&#x2211;" horiz-adv-x="1402" 
d="M1270 1495l-21 -113h-813l445 -886l-801 -891h858l-23 -119h-1030l19 98l823 924l-438 889l18 98h963z" />
    <glyph glyph-name="minus" unicode="&#x2212;" 
d="M1065 664l-21 -109h-946l23 109h944z" />
    <glyph glyph-name="radical" unicode="&#x221a;" horiz-adv-x="1230" 
d="M1325 1552l-766 -1552h-145l-146 918h-188l20 100h287l90 -637q16 -117 31 -256h4l109 237l567 1190h137z" />
    <glyph glyph-name="infinity" unicode="&#x221e;" horiz-adv-x="2009" 
d="M524 817q-96 0 -170 -75t-73 -181q0 -71 43 -113t124 -42t185 53t260 155q-111 100 -192 152t-177 51zM1706 666q0 68 -44 110t-112 41q-109 0 -286 -101q-61 -36 -168 -106q110 -100 190 -152t176 -52t170 76t74 184zM1839 682q-1 -145 -109 -267t-290 -122
q-117 0 -223 63t-236 179q-174 -115 -303 -179t-257 -63q-128 -1 -201 67t-73 181q0 161 118 275t278 114q117 0 225 -64t238 -178q118 76 194 120t174 83t172 39q147 0 220 -68t73 -180z" />
    <glyph glyph-name="integral" unicode="&#x222b;" horiz-adv-x="684" 
d="M825 1491l-20 -115q-47 18 -103 19q-88 0 -140 -80q-52 -81 -89 -271t-87 -507t-99 -577t-139 -376q-90 -115 -244 -114q-55 0 -99 12l21 117q53 -16 102 -17q88 0 141 78q52 78 85 248t84 498t103 599t140 386t248 114q45 0 96 -14z" />
    <glyph glyph-name="approxequal" unicode="&#x2248;" 
d="M764 330q-120 0 -226 61t-192 61t-205 -85l-47 94q134 104 246 104t222 -63q110 -64 196 -64t203 90l45 -94q-122 -104 -242 -104zM411 776q-87 0 -206 -86l-47 94q132 104 246 104t224 -62q110 -64 194 -64t202 92l45 -94q-119 -106 -241 -106t-226 60q-104 62 -191 62z
" />
    <glyph glyph-name="notequal" unicode="&#x2260;" 
d="M1069 823l-18 -108h-351l-127 -211h437l-21 -111h-479l-184 -309h-115l184 309h-301l21 111h346l123 211h-428l18 108h473l191 320h114l-190 -320h307z" />
    <glyph glyph-name="lessequal" unicode="&#x2264;" 
d="M915 109l-20 -109h-858l22 109h856zM1079 1128l-723 -399l584 -401l-80 -95l-698 504l862 488z" />
    <glyph glyph-name="greaterequal" unicode="&#x2265;" 
d="M915 109l-20 -109h-858l22 109h856zM1047 723l-861 -490l-59 95l723 401l-584 404l80 92z" />
    <glyph glyph-name="lozenge" unicode="&#x25ca;" horiz-adv-x="1232" 
d="M1061 680l-291 575l-496 -559l291 -567zM1198 684l-618 -700h-80l-363 716l621 699h76z" />
    <glyph glyph-name="fi" unicode="&#xfb01;" horiz-adv-x="1165" 
d="M844 1399q-317 0 -375 -307l-14 -74h618l-194 -1018h-127l174 915h-490l-186 -976q-47 -248 -160 -358t-299 -109q-90 0 -174 18l33 113q76 -23 162 -23q128 0 200 80t109 272l188 983h-229l22 103h228l8 51q70 436 518 436q137 0 264 -39l-49 -106q-106 39 -227 39z" />
    <glyph glyph-name="fl" unicode="&#xfb02;" horiz-adv-x="1161" 
d="M-188 -420q128 0 200 80t109 272l188 983h-229l22 103h228l20 115q72 373 486 372q149 1 323 -26l-280 -1479h-127l264 1384q-109 16 -189 17q-155 0 -239 -65t-111 -206l-22 -112h307l-23 -103h-303l-186 -976q-47 -248 -160 -358t-299 -109q-90 0 -174 18l33 113
q76 -23 162 -23z" />
    <glyph glyph-name="Euro" 
d="M881 1243q-317 0 -461 -375h428l-19 -94h-440q-29 -102 -39 -207h441l-17 -94h-432q-12 -186 54 -282q67 -95 257 -95q133 0 283 62l25 -105q-164 -70 -336 -69q-246 0 -339 128t-81 361h-189l17 94h182q10 111 41 207h-184l18 94h197q76 211 228 345q153 134 392 135
q143 -1 258 -56l-41 -110q-115 61 -243 61z" />
    <glyph glyph-name="apple" horiz-adv-x="2129" 
d="M55 739l228 -10v-65l-228 -11v86zM1083 727q9 0 9 10t-2 11q3 -11 -7 -21zM1079 731q6 0 4 4t2 4v2q-6 0 -4 -4t-2 -4v-2zM1069 731q2 0 6 4l-2 -4h2l2 10q-4 0 -8 -4q-2 -6 0 -6zM1063 738q0 -10 2 -11q-4 10 6 21q-8 0 -8 -10zM1059 733q-2 0 -4 2q4 2 6 4v2
q-6 2 -8 -6q0 -6 6 -4v2zM1053 741h-2q-4 -12 -4 -6l2 6h-2l-3 -6v-4q4 -2 7 4zM1042 731v2h-4l4 12h-2l-4 -12q0 -2 2 -2h4zM1337 -76l-37 86l-505 -129l55 -135h432l33 76l-17 33l-157 -41l-23 55zM1337 82l-39 96l-503 -131l36 -92zM1327 330h-524v-123l35 -84l489 123
v84zM1064 702q-60 0 -97 -8l30 -303h136l28 303q-37 8 -97 8zM1065 770q115 0 250 -39q8 -2 10 -21q2 -20 -5 -36t-24 -12q-16 10 -77 24l-31 -295h135q139 123 139 296t-116 290q-117 117 -281 117t-281 -117q-116 -117 -116 -293t141 -293h133l-35 295q-34 -10 -50 -16
q-15 -6 -26 -10t-20 12q-8 16 -5 36t13 23q131 39 246 39zM1538 690q0 -203 -139 -332v-153l-33 -10l64 -152l-62 -14l62 -144l-62 -16l23 -51l-58 -131h-98q-4 -37 -53 -62t-118 -25t-117 26q-48 24 -52 61h-96l-97 233l62 17l-62 149l68 18l-39 95v159q-61 60 -101 150
t-40 186q0 199 138 337t336 138t336 -138t138 -341zM2073 739q2 -31 2 -86l-228 11v65zM1583 1262l152 163q33 -31 59 -59l-166 -152q-14 17 -45 48zM1098 1440q0 2 -33 2l-33 -2l-8 225h84zM336 1368q37 41 59 59l152 -167l-47 -43z" />
    <glyph glyph-name="Grave" horiz-adv-x="735" 
d="M748 1577l-33 -78l-361 119l54 111z" />
    <glyph glyph-name="Acute" horiz-adv-x="772" 
d="M786 1618l-364 -119l-27 78l357 152z" />
    <glyph glyph-name="Dieresis" horiz-adv-x="1095" 
d="M612 1594q0 -36 -26 -62t-63 -27q-35 0 -59 25q-24 24 -24 60t27 62t63 26t59 -24t23 -60zM1038 1594q0 -36 -26 -62t-63 -27q-35 0 -59 25q-24 24 -24 60t26 62t62 26t60 -24t24 -60z" />
    <glyph glyph-name="Circumflex" horiz-adv-x="878" 
d="M950 1579l-51 -84l-244 133l-284 -133l-39 78l334 172z" />
    <glyph glyph-name="Tilde" horiz-adv-x="1038" 
d="M879 1516q-72 0 -149 57t-118 57q-74 0 -139 -96l-65 53q80 137 210 137q74 0 150 -56t117 -56q76 0 139 94l68 -53q-84 -137 -213 -137z" />
    <glyph glyph-name="Caron" horiz-adv-x="878" 
d="M965 1665l-334 -170l-285 166l51 84l244 -133l285 133z" />
  </font>
</defs>
</svg>
